G04*
G04 #@! TF.GenerationSoftware,Altium Limited,Altium Designer,21.2.1 (34)*
G04*
G04 Layer_Color=2752767*
%FSTAX24Y24*%
%MOIN*%
G70*
G04*
G04 #@! TF.SameCoordinates,7DA4DDB6-0622-4AF5-A47C-4C96ED8C5F13*
G04*
G04*
G04 #@! TF.FilePolarity,Positive*
G04*
G01*
G75*
%ADD36C,0.0020*%
%ADD37C,0.0027*%
D36*
X0466Y023528D02*
Y023688D01*
X04676D01*
Y023528D01*
X0466D01*
X0456D02*
Y023688D01*
X04576D01*
Y023528D01*
X0456D01*
X028057Y021552D02*
Y021712D01*
X028217D01*
Y021552D01*
X028057D01*
Y026552D02*
Y026712D01*
X028217D01*
Y026552D01*
X028057D01*
Y024552D02*
Y024712D01*
X028217D01*
Y024552D01*
X028057D01*
Y023552D02*
Y023712D01*
X028217D01*
Y023552D01*
X028057D01*
Y022552D02*
Y022712D01*
X028217D01*
Y022552D01*
X028057D01*
Y025552D02*
Y025712D01*
X028217D01*
Y025552D01*
X028057D01*
Y027552D02*
Y027712D01*
X028217D01*
Y027552D01*
X028057D01*
X036011Y025576D02*
X035931Y025736D01*
X036091D01*
X036011Y025576D01*
X037005Y021668D02*
X036925Y021828D01*
X037085D01*
X037005Y021668D01*
X036564Y023802D02*
X036484Y023962D01*
X036644D01*
X036564Y023802D01*
X031719Y025576D02*
X031639Y025736D01*
X031799D01*
X031719Y025576D01*
X032664Y026284D02*
X032584Y026444D01*
X032744D01*
X032664Y026284D01*
X031206Y023802D02*
X031126Y023962D01*
X031286D01*
X031206Y023802D01*
X043137Y020379D02*
X043057Y020539D01*
X043217D01*
X043137Y020379D01*
X040774Y020339D02*
X040694Y020499D01*
X040854D01*
X040774Y020339D01*
X04568Y025717D02*
X04572Y025757D01*
X04576D01*
X04572Y025797D01*
X04576Y025837D01*
X04572D01*
X04568Y025877D01*
X04564Y025837D01*
X0456D01*
X04564Y025797D01*
X0456Y025757D01*
X04564D01*
X04568Y025717D01*
X035438Y021108D02*
X035358Y021268D01*
X035518D01*
X035438Y021108D01*
X031643Y022463D02*
X031563Y022623D01*
X031723D01*
X031643Y022463D01*
D37*
X048138Y026632D02*
G03*
X048138Y026632I-00008J0D01*
G01*
Y024632D02*
G03*
X048138Y024632I-00008J0D01*
G01*
Y022632D02*
G03*
X048138Y022632I-00008J0D01*
G01*
M02*
