G04*
G04 #@! TF.GenerationSoftware,Altium Limited,Altium Designer,21.2.1 (34)*
G04*
G04 Layer_Physical_Order=2*
G04 Layer_Color=255*
%FSTAX24Y24*%
%MOIN*%
G70*
G04*
G04 #@! TF.SameCoordinates,7DA4DDB6-0622-4AF5-A47C-4C96ED8C5F13*
G04*
G04*
G04 #@! TF.FilePolarity,Positive*
G04*
G01*
G75*
%ADD28C,0.0197*%
%ADD29C,0.0079*%
%ADD30C,0.0394*%
%ADD31C,0.0591*%
%ADD32C,0.0630*%
%ADD33C,0.0787*%
%ADD34C,0.0276*%
%ADD35C,0.0157*%
G36*
X027499Y029243D02*
X027465Y029229D01*
X027382Y029166D01*
X027382Y029166D01*
X026989Y028772D01*
X026925Y028689D01*
X026885Y028593D01*
X026872Y02849D01*
X026872Y02849D01*
Y025892D01*
X026872Y025892D01*
X026885Y025789D01*
X026925Y025692D01*
X026989Y02561D01*
X027248Y02535D01*
X027331Y025287D01*
X027427Y025247D01*
X02753Y025233D01*
X02753Y025233D01*
X028021D01*
X028082Y025217D01*
X028191D01*
X028297Y025245D01*
X028391Y0253D01*
X028469Y025377D01*
X028523Y025472D01*
X028552Y025577D01*
Y025687D01*
X028523Y025792D01*
X028469Y025887D01*
X028391Y025964D01*
X028297Y026019D01*
X028191Y026047D01*
X028082D01*
X028021Y026031D01*
X027695D01*
X027669Y026057D01*
Y028325D01*
X027829Y028485D01*
X033215D01*
Y020049D01*
X026349D01*
Y029293D01*
X027489D01*
X027499Y029243D01*
D02*
G37*
G36*
X05331Y020049D02*
X034633D01*
Y029293D01*
X05331D01*
Y020049D01*
D02*
G37*
%LPC*%
G36*
X028191Y028047D02*
X028082D01*
X027976Y028019D01*
X027882Y027964D01*
X027805Y027887D01*
X02775Y027792D01*
X027722Y027687D01*
Y027577D01*
X02775Y027472D01*
X027805Y027377D01*
X027882Y0273D01*
X027976Y027245D01*
X028082Y027217D01*
X028191D01*
X028297Y027245D01*
X028391Y0273D01*
X028469Y027377D01*
X028523Y027472D01*
X028552Y027577D01*
Y027687D01*
X028523Y027792D01*
X028469Y027887D01*
X028391Y027964D01*
X028297Y028019D01*
X028191Y028047D01*
D02*
G37*
G36*
Y027047D02*
X028187D01*
Y026682D01*
X028552D01*
Y026687D01*
X028523Y026792D01*
X028469Y026887D01*
X028391Y026964D01*
X028297Y027019D01*
X028191Y027047D01*
D02*
G37*
G36*
X028087D02*
X028082D01*
X027976Y027019D01*
X027882Y026964D01*
X027805Y026887D01*
X02775Y026792D01*
X027722Y026687D01*
Y026682D01*
X028087D01*
Y027047D01*
D02*
G37*
G36*
X028552Y026582D02*
X028187D01*
Y026217D01*
X028191D01*
X028297Y026245D01*
X028391Y0263D01*
X028469Y026377D01*
X028523Y026472D01*
X028552Y026577D01*
Y026582D01*
D02*
G37*
G36*
X028087D02*
X027722D01*
Y026577D01*
X02775Y026472D01*
X027805Y026377D01*
X027882Y0263D01*
X027976Y026245D01*
X028082Y026217D01*
X028087D01*
Y026582D01*
D02*
G37*
G36*
X031769Y025892D02*
Y025706D01*
X031956D01*
X031921Y02579D01*
X031854Y025857D01*
X031769Y025892D01*
D02*
G37*
G36*
X031669D02*
X031585Y025857D01*
X031518Y02579D01*
X031483Y025706D01*
X031669D01*
Y025892D01*
D02*
G37*
G36*
X031956Y025606D02*
X031769D01*
Y025419D01*
X031854Y025454D01*
X031921Y025521D01*
X031956Y025606D01*
D02*
G37*
G36*
X031669D02*
X031483D01*
X031518Y025521D01*
X031585Y025454D01*
X031669Y025419D01*
Y025606D01*
D02*
G37*
G36*
X032664Y026664D02*
X03105D01*
X030973Y026653D01*
X0309Y026623D01*
X030838Y026576D01*
X030244Y025981D01*
X030196Y025919D01*
X030166Y025847D01*
X030156Y02577D01*
Y024931D01*
X028424D01*
X028391Y024964D01*
X028297Y025019D01*
X028191Y025047D01*
X028082D01*
X027976Y025019D01*
X027882Y024964D01*
X027805Y024887D01*
X02775Y024792D01*
X027722Y024687D01*
Y024577D01*
X02775Y024472D01*
X027805Y024377D01*
X027882Y0243D01*
X027976Y024245D01*
X028082Y024217D01*
X028191D01*
X028297Y024245D01*
X028391Y0243D01*
X028424Y024332D01*
X030331D01*
X030994Y02367D01*
X031056Y023623D01*
X031128Y023593D01*
X031206Y023582D01*
X031283Y023593D01*
X031355Y023623D01*
X031417Y02367D01*
X031465Y023732D01*
X031495Y023804D01*
X031505Y023882D01*
X031495Y023959D01*
X031465Y024032D01*
X031417Y024094D01*
X030755Y024756D01*
Y025646D01*
X031174Y026065D01*
X032664D01*
X032742Y026075D01*
X032814Y026105D01*
X032876Y026152D01*
X032923Y026214D01*
X032953Y026287D01*
X032964Y026364D01*
X032953Y026442D01*
X032923Y026514D01*
X032876Y026576D01*
X032814Y026623D01*
X032742Y026653D01*
X032664Y026664D01*
D02*
G37*
G36*
X028191Y024047D02*
X028082D01*
X027976Y024019D01*
X027882Y023964D01*
X027805Y023887D01*
X02775Y023792D01*
X027722Y023687D01*
Y023577D01*
X02775Y023472D01*
X027805Y023377D01*
X027882Y0233D01*
X027976Y023245D01*
X028082Y023217D01*
X028191D01*
X028297Y023245D01*
X028391Y0233D01*
X028469Y023377D01*
X028523Y023472D01*
X028552Y023577D01*
Y023687D01*
X028523Y023792D01*
X028469Y023887D01*
X028391Y023964D01*
X028297Y024019D01*
X028191Y024047D01*
D02*
G37*
G36*
X031693Y02278D02*
Y022593D01*
X031879D01*
X031844Y022678D01*
X031777Y022745D01*
X031693Y02278D01*
D02*
G37*
G36*
X031593D02*
X031508Y022745D01*
X031441Y022678D01*
X031406Y022593D01*
X031593D01*
Y02278D01*
D02*
G37*
G36*
X031879Y022493D02*
X031693D01*
Y022307D01*
X031777Y022342D01*
X031844Y022409D01*
X031879Y022493D01*
D02*
G37*
G36*
X031593D02*
X031406D01*
X031441Y022409D01*
X031508Y022342D01*
X031593Y022307D01*
Y022493D01*
D02*
G37*
G36*
X028191Y023047D02*
X028082D01*
X027976Y023019D01*
X027882Y022964D01*
X027805Y022887D01*
X02775Y022792D01*
X027722Y022687D01*
Y022577D01*
X02775Y022472D01*
X027805Y022377D01*
X027882Y0223D01*
X027976Y022245D01*
X028082Y022217D01*
X028191D01*
X028297Y022245D01*
X028391Y0223D01*
X028469Y022377D01*
X028523Y022472D01*
X028552Y022577D01*
Y022687D01*
X028523Y022792D01*
X028469Y022887D01*
X028391Y022964D01*
X028297Y023019D01*
X028191Y023047D01*
D02*
G37*
G36*
Y022047D02*
X028082D01*
X027976Y022019D01*
X027882Y021964D01*
X027805Y021887D01*
X02775Y021792D01*
X027722Y021687D01*
Y021577D01*
X02775Y021472D01*
X027805Y021377D01*
X027882Y0213D01*
X027976Y021245D01*
X028082Y021217D01*
X028191D01*
X028297Y021245D01*
X028391Y0213D01*
X028469Y021377D01*
X028523Y021472D01*
X028552Y021577D01*
Y021687D01*
X028523Y021792D01*
X028469Y021887D01*
X028391Y021964D01*
X028297Y022019D01*
X028191Y022047D01*
D02*
G37*
G36*
X048123Y027126D02*
X047993D01*
X047867Y027092D01*
X047755Y027027D01*
X047663Y026935D01*
X047598Y026822D01*
X047564Y026697D01*
Y026567D01*
X047598Y026441D01*
X047663Y026329D01*
X047755Y026237D01*
X047867Y026172D01*
X047993Y026138D01*
X048123D01*
X048248Y026172D01*
X048361Y026237D01*
X048453Y026329D01*
X048518Y026441D01*
X048552Y026567D01*
Y026697D01*
X048518Y026822D01*
X048453Y026935D01*
X048361Y027027D01*
X048248Y027092D01*
X048123Y027126D01*
D02*
G37*
G36*
Y025126D02*
X047993D01*
X047867Y025092D01*
X047755Y025027D01*
X047663Y024935D01*
X047598Y024822D01*
X047564Y024697D01*
Y024567D01*
X047598Y024441D01*
X047621Y024402D01*
X047067Y023848D01*
X047022Y023854D01*
X047011Y023864D01*
X046935Y02394D01*
X04684Y023995D01*
X046735Y024023D01*
X046625D01*
X04652Y023995D01*
X046425Y02394D01*
X046348Y023863D01*
X046293Y023768D01*
X046265Y023663D01*
Y023554D01*
X046293Y023448D01*
X046348Y023353D01*
X046425Y023276D01*
X04652Y023222D01*
X046625Y023193D01*
X046735D01*
X04684Y023222D01*
X046935Y023276D01*
X047012Y023353D01*
X047042Y023406D01*
X047113D01*
X04719Y023421D01*
X047256Y023465D01*
X047943Y024152D01*
X047993Y024138D01*
X048123D01*
X048248Y024172D01*
X048361Y024237D01*
X048453Y024329D01*
X048518Y024441D01*
X048552Y024567D01*
Y024697D01*
X048518Y024822D01*
X048453Y024935D01*
X048361Y025027D01*
X048248Y025092D01*
X048123Y025126D01*
D02*
G37*
G36*
X036614Y024119D02*
Y023932D01*
X0368D01*
X036765Y024017D01*
X036698Y024083D01*
X036614Y024119D01*
D02*
G37*
G36*
X036514D02*
X036429Y024083D01*
X036362Y024017D01*
X036327Y023932D01*
X036514D01*
Y024119D01*
D02*
G37*
G36*
X0368Y023832D02*
X036614D01*
Y023645D01*
X036698Y02368D01*
X036765Y023747D01*
X0368Y023832D01*
D02*
G37*
G36*
X036514D02*
X036327D01*
X036362Y023747D01*
X036429Y02368D01*
X036514Y023645D01*
Y023832D01*
D02*
G37*
G36*
X04568Y026D02*
X045602Y025984D01*
X045537Y02594D01*
X045493Y025875D01*
X045478Y025797D01*
Y023971D01*
X045425Y02394D01*
X045348Y023863D01*
X045293Y023768D01*
X045265Y023663D01*
Y023554D01*
X045293Y023448D01*
X045348Y023353D01*
X045425Y023276D01*
X04552Y023222D01*
X045625Y023193D01*
X045735D01*
X04584Y023222D01*
X045935Y023276D01*
X046012Y023353D01*
X046067Y023448D01*
X046095Y023554D01*
Y023663D01*
X046067Y023768D01*
X046012Y023863D01*
X045935Y02394D01*
X045882Y023971D01*
Y025797D01*
X045867Y025875D01*
X045823Y02594D01*
X045757Y025984D01*
X04568Y026D01*
D02*
G37*
G36*
X048123Y023126D02*
X048108D01*
Y022682D01*
X048552D01*
Y022697D01*
X048518Y022822D01*
X048453Y022935D01*
X048361Y023027D01*
X048248Y023092D01*
X048123Y023126D01*
D02*
G37*
G36*
X048008D02*
X047993D01*
X047867Y023092D01*
X047755Y023027D01*
X047663Y022935D01*
X047598Y022822D01*
X047564Y022697D01*
Y022682D01*
X048008D01*
Y023126D01*
D02*
G37*
G36*
X048552Y022582D02*
X048108D01*
Y022138D01*
X048123D01*
X048248Y022172D01*
X048361Y022237D01*
X048453Y022329D01*
X048518Y022441D01*
X048552Y022567D01*
Y022582D01*
D02*
G37*
G36*
X048008D02*
X047564D01*
Y022567D01*
X047598Y022441D01*
X047663Y022329D01*
X047755Y022237D01*
X047867Y022172D01*
X047993Y022138D01*
X048008D01*
Y022582D01*
D02*
G37*
G36*
X036058Y025893D02*
X035963D01*
X035876Y025857D01*
X035809Y02579D01*
X035773Y025703D01*
Y025608D01*
X035808Y025523D01*
Y022742D01*
X035824Y022665D01*
X035868Y022599D01*
X036768Y021699D01*
X036803Y021613D01*
X03687Y021546D01*
X036957Y02151D01*
X037052D01*
X037139Y021546D01*
X037206Y021613D01*
X037243Y021701D01*
Y021795D01*
X037206Y021883D01*
X037139Y02195D01*
X037054Y021985D01*
X036213Y022826D01*
Y025523D01*
X036248Y025608D01*
Y025703D01*
X036212Y02579D01*
X036145Y025857D01*
X036058Y025893D01*
D02*
G37*
G36*
X035488Y021425D02*
Y021238D01*
X035675D01*
X03564Y021323D01*
X035573Y02139D01*
X035488Y021425D01*
D02*
G37*
G36*
X035388D02*
X035304Y02139D01*
X035237Y021323D01*
X035202Y021238D01*
X035388D01*
Y021425D01*
D02*
G37*
G36*
X035675Y021138D02*
X035488D01*
Y020952D01*
X035573Y020987D01*
X03564Y021054D01*
X035675Y021138D01*
D02*
G37*
G36*
X035388D02*
X035202D01*
X035237Y021054D01*
X035304Y020987D01*
X035388Y020952D01*
Y021138D01*
D02*
G37*
G36*
X043187Y020695D02*
Y020509D01*
X043373D01*
X043338Y020593D01*
X043271Y02066D01*
X043187Y020695D01*
D02*
G37*
G36*
X043087D02*
X043002Y02066D01*
X042935Y020593D01*
X0429Y020509D01*
X043087D01*
Y020695D01*
D02*
G37*
G36*
X040824Y020656D02*
Y020469D01*
X041011D01*
X040976Y020554D01*
X040909Y020621D01*
X040824Y020656D01*
D02*
G37*
G36*
X040724D02*
X04064Y020621D01*
X040573Y020554D01*
X040538Y020469D01*
X040724D01*
Y020656D01*
D02*
G37*
G36*
X043373Y020409D02*
X043187D01*
Y020222D01*
X043271Y020257D01*
X043338Y020324D01*
X043373Y020409D01*
D02*
G37*
G36*
X043087D02*
X0429D01*
X042935Y020324D01*
X043002Y020257D01*
X043087Y020222D01*
Y020409D01*
D02*
G37*
G36*
X041011Y020369D02*
X040824D01*
Y020183D01*
X040909Y020218D01*
X040976Y020285D01*
X041011Y020369D01*
D02*
G37*
G36*
X040724D02*
X040538D01*
X040573Y020285D01*
X04064Y020218D01*
X040724Y020183D01*
Y020369D01*
D02*
G37*
%LPD*%
D28*
X037585Y020459D02*
Y022033D01*
X036564Y023055D02*
X037585Y022033D01*
X036564Y023055D02*
Y023882D01*
X036011Y022742D02*
X037005Y021748D01*
X036011Y022742D02*
Y025656D01*
X031643Y022543D02*
X031719Y02262D01*
Y025656D01*
X04568Y025797D02*
X04568Y025797D01*
X04568Y023608D02*
Y025797D01*
X04668Y023608D02*
X047113D01*
X048058Y024553D01*
Y024632D01*
D29*
X04568Y023608D02*
X04568Y023608D01*
D30*
X03105Y026364D02*
X032664D01*
X030456Y02577D02*
X03105Y026364D01*
X030456Y024632D02*
Y02577D01*
Y024632D02*
X031206Y023882D01*
X028137Y024632D02*
X030456D01*
D31*
X037585Y020459D02*
X047507D01*
X036168D02*
X037585D01*
X035438Y021188D02*
X036168Y020459D01*
X047507D02*
X048058Y02101D01*
Y022632D01*
X049089D01*
X049436Y022978D01*
Y028333D01*
X048885Y028884D02*
X049436Y028333D01*
X027664Y028884D02*
X048885D01*
X02727Y02849D02*
X027664Y028884D01*
X02727Y025892D02*
Y02849D01*
Y025892D02*
X02753Y025632D01*
X028137D01*
D32*
X04668Y023608D02*
D03*
X04568D02*
D03*
X028137Y021632D02*
D03*
Y026632D02*
D03*
Y024632D02*
D03*
Y023632D02*
D03*
Y022632D02*
D03*
Y025632D02*
D03*
Y027632D02*
D03*
D33*
X048058Y026632D02*
D03*
Y024632D02*
D03*
Y022632D02*
D03*
D34*
X036011Y025656D02*
D03*
X037005Y021748D02*
D03*
X036564Y023882D02*
D03*
X031719Y025656D02*
D03*
X032664Y026364D02*
D03*
X031206Y023882D02*
D03*
X043137Y020459D02*
D03*
X040774Y020419D02*
D03*
X035438Y021188D02*
D03*
X031643Y022543D02*
D03*
D35*
X04568Y025797D02*
D03*
M02*
