G04*
G04 #@! TF.GenerationSoftware,Altium Limited,Altium Designer,21.2.1 (34)*
G04*
G04 Layer_Color=65535*
%FSTAX24Y24*%
%MOIN*%
G70*
G04*
G04 #@! TF.SameCoordinates,7DA4DDB6-0622-4AF5-A47C-4C96ED8C5F13*
G04*
G04*
G04 #@! TF.FilePolarity,Positive*
G04*
G01*
G75*
%ADD10C,0.0118*%
%ADD11C,0.0070*%
G36*
X050832Y0267D02*
X051082D01*
Y0265D01*
X050832D01*
Y02635D01*
X050582Y0266D01*
X050832Y02685D01*
Y0267D01*
D02*
G37*
G36*
Y024732D02*
X051082D01*
Y024532D01*
Y0245D01*
X050832D01*
Y024382D01*
Y02435D01*
X050582Y0246D01*
X050598Y024616D01*
X050582Y024632D01*
X050832Y024882D01*
Y024732D01*
D02*
G37*
G36*
Y022732D02*
X051082D01*
Y022532D01*
X050832D01*
Y022382D01*
X050582Y022632D01*
X050832Y022882D01*
Y022732D01*
D02*
G37*
G36*
X029632Y021277D02*
X029272Y021637D01*
X029282D01*
X029632Y021987D01*
Y021277D01*
D02*
G37*
D10*
X033491Y025803D02*
G03*
X034278Y025803I000394J0D01*
G01*
X033539Y022959D02*
G03*
X034208Y022959I000335J0D01*
G01*
X04707Y023104D02*
G03*
X04718Y023215I0J00011D01*
G01*
X04718Y024002D02*
G03*
X04707Y024112I-00011J0D01*
G01*
X04518Y023215D02*
G03*
X045274Y023104I000102J-000008D01*
G01*
Y024112D02*
G03*
X04518Y024002I000008J-000102D01*
G01*
X040226Y025587D02*
G03*
X040614Y025587I000194J-0D01*
G01*
X031454Y026079D02*
Y02665D01*
X031459D02*
X032589D01*
X032595Y026079D02*
Y02665D01*
X031454Y026079D02*
X032589D01*
X032024D02*
Y02665D01*
X032389Y023461D02*
X035381D01*
X032386Y023767D02*
Y024D01*
Y024267D02*
Y0245D01*
Y023767D02*
Y024D01*
X032389Y023461D02*
Y025803D01*
X032386Y024767D02*
Y025D01*
Y025267D02*
Y0255D01*
X032389Y025803D02*
X033137D01*
X035383Y023764D02*
Y023997D01*
X035381Y023461D02*
Y024632D01*
Y025803D01*
X035383Y024264D02*
Y024497D01*
Y024764D02*
Y024997D01*
Y025264D02*
Y025497D01*
Y025264D02*
Y025497D01*
X033137Y025803D02*
X033491D01*
X034278D02*
X034633D01*
X035381D01*
X031247Y025656D02*
X032389D01*
X031247Y025262D02*
Y025656D01*
X035173Y022821D02*
Y022959D01*
X034208D02*
X035173D01*
Y021797D02*
Y02227D01*
Y021108D02*
Y021246D01*
X032574Y022821D02*
Y022959D01*
X033539D01*
X031669Y022821D02*
X032574D01*
X031669Y022385D02*
Y022821D01*
X032574Y021797D02*
Y02227D01*
Y021108D02*
X035173D01*
X032574D02*
Y021246D01*
X030893Y021324D02*
Y021724D01*
X03648Y022033D02*
X03688D01*
X04608Y024108D02*
X04618Y024008D01*
X04628Y024108D01*
X04618Y023204D02*
X04628Y023104D01*
X04618Y023204D02*
Y023208D01*
X04608Y023108D02*
X04618Y023208D01*
X04628Y024112D02*
X04708D01*
X04628Y023104D02*
X04708D01*
X04718Y023215D02*
Y024002D01*
X04518Y023215D02*
Y024002D01*
X045274Y024112D02*
X04608D01*
X045274Y023104D02*
X046076D01*
X04708Y024108D02*
Y024112D01*
Y023104D02*
Y023108D01*
X04548Y025222D02*
X04588D01*
X042937Y025157D02*
X043337D01*
X042937Y024087D02*
X043337D01*
X041857Y026079D02*
Y02665D01*
X040721Y026079D02*
X041851D01*
X040715D02*
Y02665D01*
X040721D02*
X041857D01*
X041286Y026079D02*
Y02665D01*
X037585Y024682D02*
Y025082D01*
Y024182D02*
Y024582D01*
X035715Y026079D02*
Y02665D01*
X035721D02*
X036851D01*
X036857Y026079D02*
Y02665D01*
X035715Y026079D02*
X036851D01*
X036286D02*
Y02665D01*
X040614Y025587D02*
X040932D01*
X039908D02*
X040226D01*
X039908D02*
Y025606D01*
X040932Y023657D02*
Y025587D01*
X039908Y023657D02*
Y025587D01*
X038806Y025606D02*
X039908D01*
X038806Y025252D02*
Y025606D01*
X039908Y023657D02*
X040932D01*
X0493Y025632D02*
X051437D01*
X052207Y021632D02*
Y025631D01*
Y023632D02*
Y027631D01*
X0493Y023632D02*
X051437D01*
X04871Y021632D02*
Y025632D01*
Y023632D02*
Y027632D01*
X047405D02*
X052205D01*
X047405Y021632D02*
X052207D01*
X047405Y021632D02*
Y025632D01*
Y023632D02*
Y027632D01*
X052546Y022789D02*
X052625Y022868D01*
X052782D01*
X052861Y022789D01*
Y022474D01*
X052782Y022396D01*
X052625D01*
X052546Y022474D01*
Y022789D01*
X053018Y022868D02*
Y022553D01*
X053176Y022396D01*
X053333Y022553D01*
Y022868D01*
X052546Y024396D02*
Y024711D01*
X052703Y024868D01*
X052861Y024711D01*
Y024396D01*
Y024632D01*
X052546D01*
Y026868D02*
Y026396D01*
X052782D01*
X052861Y026474D01*
Y026553D01*
X052782Y026632D01*
X052546D01*
X052782D01*
X052861Y026711D01*
Y026789D01*
X052782Y026868D01*
X052546D01*
X029357Y020774D02*
Y021246D01*
X029593D01*
X029672Y021167D01*
Y02101D01*
X029593Y020931D01*
X029357D01*
X029515D02*
X029672Y020774D01*
X029829Y021246D02*
X030144Y020774D01*
Y021246D02*
X029829Y020774D01*
X029318Y022829D02*
X029633D01*
X029475D01*
Y022356D01*
X02979Y022829D02*
X030105Y022356D01*
Y022829D02*
X02979Y022356D01*
X029633Y02375D02*
X029554Y023829D01*
X029396D01*
X029318Y02375D01*
Y023435D01*
X029396Y023356D01*
X029554D01*
X029633Y023435D01*
X02979Y023829D02*
X030105D01*
X029947D01*
Y023356D01*
X030262D02*
Y023829D01*
X030498D01*
X030577Y02375D01*
Y023593D01*
X030498Y023514D01*
X030262D01*
X03042D02*
X030577Y023356D01*
X029318Y02475D02*
X029396Y024829D01*
X029554D01*
X029633Y02475D01*
Y024435D01*
X029554Y024356D01*
X029396D01*
X029318Y024435D01*
Y02475D01*
X02979Y024829D02*
Y024514D01*
X029947Y024356D01*
X030105Y024514D01*
Y024829D01*
X029318Y025829D02*
X029396Y025907D01*
X029554D01*
X029633Y025829D01*
Y025514D01*
X029554Y025435D01*
X029396D01*
X029318Y025514D01*
Y025829D01*
X02979Y025907D02*
Y025593D01*
X029947Y025435D01*
X030105Y025593D01*
Y025907D01*
X030262Y025356D02*
X030577D01*
X030735Y025435D02*
Y025907D01*
X030971D01*
X031049Y025829D01*
Y025671D01*
X030971Y025593D01*
X030735D01*
X030892D02*
X031049Y025435D01*
X029318Y02675D02*
X029396Y026829D01*
X029554D01*
X029633Y02675D01*
Y026671D01*
X029554Y026593D01*
X029475D01*
X029554D01*
X029633Y026514D01*
Y026435D01*
X029554Y026356D01*
X029396D01*
X029318Y026435D01*
X02979Y026829D02*
Y026514D01*
X029947Y026356D01*
X030105Y026514D01*
Y026829D01*
X030262Y02675D02*
X030341Y026829D01*
X030498D01*
X030577Y02675D01*
Y026671D01*
X030498Y026593D01*
X03042D01*
X030498D01*
X030577Y026514D01*
Y026435D01*
X030498Y026356D01*
X030341D01*
X030262Y026435D01*
X037192Y02349D02*
Y023963D01*
X037428D01*
X037507Y023884D01*
Y023726D01*
X037428Y023648D01*
X037192D01*
X037349D02*
X037507Y02349D01*
X0379D02*
Y023963D01*
X037664Y023726D01*
X037979D01*
X032546Y02727D02*
X032467Y027348D01*
X03231D01*
X032231Y02727D01*
Y026955D01*
X03231Y026876D01*
X032467D01*
X032546Y026955D01*
X032703Y026876D02*
X032861D01*
X032782D01*
Y027348D01*
X032703Y02727D01*
X029318Y027829D02*
X029396Y027907D01*
X029554D01*
X029633Y027829D01*
Y02775D01*
X029554Y027671D01*
X029475D01*
X029554D01*
X029633Y027593D01*
Y027514D01*
X029554Y027435D01*
X029396D01*
X029318Y027514D01*
X02979Y027907D02*
Y027593D01*
X029947Y027435D01*
X030105Y027593D01*
Y027907D01*
X030262Y027829D02*
X030341Y027907D01*
X030498D01*
X030577Y027829D01*
Y02775D01*
X030498Y027671D01*
X03042D01*
X030498D01*
X030577Y027593D01*
Y027514D01*
X030498Y027435D01*
X030341D01*
X030262Y027514D01*
X030735Y027356D02*
X031049D01*
X031207Y027435D02*
Y027907D01*
X031443D01*
X031522Y027829D01*
Y027671D01*
X031443Y027593D01*
X031207D01*
X031364D02*
X031522Y027435D01*
X031994Y027829D02*
X031915Y027907D01*
X031758D01*
X031679Y027829D01*
Y02775D01*
X031758Y027671D01*
X031915D01*
X031994Y027593D01*
Y027514D01*
X031915Y027435D01*
X031758D01*
X031679Y027514D01*
X03353Y026718D02*
Y026325D01*
X033609Y026246D01*
X033767D01*
X033845Y026325D01*
Y026718D01*
X034003Y026246D02*
X03416D01*
X034081D01*
Y026718D01*
X034003Y02664D01*
X033452Y020774D02*
Y02038D01*
X03353Y020301D01*
X033688D01*
X033767Y02038D01*
Y020774D01*
X033924Y020695D02*
X034003Y020774D01*
X03416D01*
X034239Y020695D01*
Y020616D01*
X03416Y020537D01*
X034081D01*
X03416D01*
X034239Y020459D01*
Y02038D01*
X03416Y020301D01*
X034003D01*
X033924Y02038D01*
X030499Y020656D02*
Y021128D01*
X030735D01*
X030814Y021049D01*
Y020892D01*
X030735Y020813D01*
X030499D01*
X030656D02*
X030814Y020656D01*
X030971Y021128D02*
X031286D01*
Y021049D01*
X030971Y020734D01*
Y020656D01*
X037822Y021679D02*
X037349D01*
Y021915D01*
X037428Y021994D01*
X037585D01*
X037664Y021915D01*
Y021679D01*
Y021837D02*
X037822Y021994D01*
X037349Y022466D02*
X037428Y022309D01*
X037585Y022152D01*
X037743D01*
X037822Y02223D01*
Y022388D01*
X037743Y022466D01*
X037664D01*
X037585Y022388D01*
Y022152D01*
X04605Y02286D02*
X045893D01*
X045971D01*
Y022467D01*
X045893Y022388D01*
X045814D01*
X045735Y022467D01*
X046207Y022388D02*
X046365D01*
X046286D01*
Y02286D01*
X046207Y022781D01*
X046483Y024868D02*
X046011D01*
Y025104D01*
X046089Y025183D01*
X046247D01*
X046326Y025104D01*
Y024868D01*
Y025026D02*
X046483Y025183D01*
X046089Y025341D02*
X046011Y025419D01*
Y025577D01*
X046089Y025655D01*
X046168D01*
X046247Y025577D01*
Y025498D01*
Y025577D01*
X046326Y025655D01*
X046404D01*
X046483Y025577D01*
Y025419D01*
X046404Y025341D01*
X044042Y024908D02*
X04357D01*
Y025144D01*
X043648Y025222D01*
X043806D01*
X043885Y025144D01*
Y024908D01*
Y025065D02*
X044042Y025222D01*
Y02538D02*
Y025537D01*
Y025459D01*
X04357D01*
X043648Y02538D01*
X044042Y023648D02*
X04357D01*
Y023884D01*
X043648Y023963D01*
X043806D01*
X043885Y023884D01*
Y023648D01*
Y023805D02*
X044042Y023963D01*
X04357Y024435D02*
Y02412D01*
X043806D01*
X043727Y024277D01*
Y024356D01*
X043806Y024435D01*
X043963D01*
X044042Y024356D01*
Y024199D01*
X043963Y02412D01*
X041208Y02723D02*
X041129Y027309D01*
X040971D01*
X040893Y02723D01*
Y026915D01*
X040971Y026837D01*
X041129D01*
X041208Y026915D01*
X041365Y02723D02*
X041444Y027309D01*
X041601D01*
X04168Y02723D01*
Y027152D01*
X041601Y027073D01*
X041522D01*
X041601D01*
X04168Y026994D01*
Y026915D01*
X041601Y026837D01*
X041444D01*
X041365Y026915D01*
X037192Y025262D02*
Y025734D01*
X037428D01*
X037507Y025655D01*
Y025498D01*
X037428Y025419D01*
X037192D01*
X037349D02*
X037507Y025262D01*
X037979D02*
X037664D01*
X037979Y025577D01*
Y025655D01*
X0379Y025734D01*
X037743D01*
X037664Y025655D01*
X036247Y02723D02*
X036168Y027309D01*
X036011D01*
X035932Y02723D01*
Y026915D01*
X036011Y026837D01*
X036168D01*
X036247Y026915D01*
X036719Y026837D02*
X036404D01*
X036719Y027152D01*
Y02723D01*
X03664Y027309D01*
X036483D01*
X036404Y02723D01*
X027546Y029199D02*
X027389D01*
X027467D01*
Y028805D01*
X027389Y028726D01*
X02731D01*
X027231Y028805D01*
X027704Y028726D02*
Y029199D01*
X02794D01*
X028018Y02912D01*
Y028963D01*
X02794Y028884D01*
X027704D01*
X028491Y028726D02*
X028176D01*
X028491Y029041D01*
Y02912D01*
X028412Y029199D01*
X028255D01*
X028176Y02912D01*
X03886Y026452D02*
Y026059D01*
X038939Y02598D01*
X039096D01*
X039175Y026059D01*
Y026452D01*
X039647Y02598D02*
X039332D01*
X039647Y026295D01*
Y026374D01*
X039568Y026452D01*
X039411D01*
X039332Y026374D01*
X047775Y028482D02*
X047617D01*
X047696D01*
Y028089D01*
X047617Y02801D01*
X047539D01*
X04746Y028089D01*
X047932Y02801D02*
Y028482D01*
X048168D01*
X048247Y028404D01*
Y028246D01*
X048168Y028167D01*
X047932D01*
X048405Y02801D02*
X048562D01*
X048483D01*
Y028482D01*
X048405Y028404D01*
D11*
X026737Y028632D02*
X028137D01*
X026737Y020632D02*
X029137D01*
Y028632D01*
X028137D02*
X029137D01*
X026737Y020632D02*
Y028632D01*
X028817Y022122D02*
X029117D01*
X028817D02*
Y022622D01*
X029117D01*
X028827Y026642D02*
X029127D01*
X028827D02*
Y027142D01*
X029127D01*
M02*
