M48
;Layer_Color=9474304
;FILE_FORMAT=2:4
INCH,LZ
;TYPE=PLATED
T1F00S00C0.0079
T2F00S00C0.0157
T3F00S00C0.0394
T4F00S00C0.0512
%
T01
X04568Y025797
T02
X031643Y022543
X031719Y025656
X032664Y026364
X036011Y025656
X036564Y023882
X037005Y021748
X035438Y021188
X040774Y020419
X043137Y020459
X031206Y023882
T03
X04568Y023608
X04668
X028137Y023632
Y024632
Y025632
Y026632
Y027632
Y022632
Y021632
T04
X048058Y022632
Y024632
Y026632
M30
