G04*
G04 #@! TF.GenerationSoftware,Altium Limited,Altium Designer,20.1.11 (218)*
G04*
G04 Layer_Color=65535*
%FSTAX24Y24*%
%MOIN*%
G70*
G04*
G04 #@! TF.SameCoordinates,6DBB7448-FED5-465F-904A-7FE87FEFC6C8*
G04*
G04*
G04 #@! TF.FilePolarity,Positive*
G04*
G01*
G75*
%ADD10C,0.0098*%
%ADD11C,0.0079*%
%ADD12C,0.0100*%
%ADD13C,0.0236*%
%ADD14C,0.0050*%
%ADD15C,0.0040*%
%ADD16C,0.0059*%
%ADD17C,0.0039*%
%ADD18C,0.0070*%
%ADD19R,0.0500X0.1000*%
G36*
X035605Y017822D02*
Y017584D01*
X03537D01*
Y017822D01*
X035605D01*
D02*
G37*
G36*
X038055D02*
Y017584D01*
X03782D01*
Y017822D01*
X038055D01*
D02*
G37*
D10*
X024491Y034481D02*
G03*
X024491Y034481I-000049J0D01*
G01*
X025218Y030351D02*
G03*
X025218Y030351I-000049J0D01*
G01*
X040723Y027761D02*
G03*
X040723Y027761I-000049J0D01*
G01*
D11*
X03808Y017704D02*
G03*
X03808Y017704I-000142J0D01*
G01*
X03563D02*
G03*
X03563Y017704I-000142J0D01*
G01*
X027993Y022861D02*
G03*
X027993Y022861I-000039J0D01*
G01*
X027691Y0277D02*
G03*
X027691Y0277I-000039J0D01*
G01*
X023851Y034481D02*
Y037119D01*
X022749Y034481D02*
Y037119D01*
Y034481D02*
X023851D01*
X022749Y037119D02*
X023851D01*
X0222Y02804D02*
Y02825D01*
X0243D01*
X02311Y02756D02*
X02339D01*
X02311Y02813D02*
X02339D01*
X0243Y02745D02*
Y02825D01*
X0222Y02745D02*
X0243D01*
X0222D02*
Y02804D01*
X0232Y03329D02*
Y0335D01*
X0253D01*
X02411Y03281D02*
X02439D01*
X02411Y03338D02*
X02439D01*
X0253Y0327D02*
Y0335D01*
X0232Y0327D02*
X0253D01*
X0232D02*
Y03329D01*
X029993Y034103D02*
Y034497D01*
Y0343D02*
X030268Y034143D01*
X029993Y0343D02*
X030268Y034497D01*
Y034143D02*
Y034497D01*
X029914Y0343D02*
X029993D01*
X030268D02*
X030386D01*
X033044Y029767D02*
X033754D01*
X033044Y029222D02*
Y029767D01*
X033754Y029222D02*
Y029767D01*
Y028389D02*
Y028917D01*
X033044Y028389D02*
X033754D01*
X033044D02*
Y028917D01*
X034406Y020783D02*
Y021311D01*
X033696D02*
X034406D01*
X033696Y020783D02*
Y021311D01*
Y019933D02*
Y020478D01*
X034406Y019933D02*
Y020478D01*
X033696Y019933D02*
X034406D01*
X033746Y017035D02*
X034456D01*
Y01758D01*
X033746Y017035D02*
Y01758D01*
Y017885D02*
Y018413D01*
X034456D01*
Y017885D02*
Y018413D01*
X035094Y017251D02*
Y019495D01*
X036906D01*
Y017251D02*
Y019495D01*
X035094Y017251D02*
X036906D01*
X037544D02*
Y019495D01*
X039356D01*
Y017251D02*
Y019495D01*
X037544Y017251D02*
X039356D01*
X0437Y03115D02*
Y03215D01*
X039602Y03115D02*
Y03215D01*
X044798D01*
X039602Y03115D02*
X044798D01*
Y03215D01*
X040456Y019385D02*
Y019913D01*
X039746D02*
X040456D01*
X039746Y019385D02*
Y019913D01*
Y018535D02*
Y01908D01*
X040456Y018535D02*
Y01908D01*
X039746Y018535D02*
X040456D01*
X039796Y016435D02*
X040506D01*
Y01698D01*
X039796Y016435D02*
Y01698D01*
Y017285D02*
Y017813D01*
X040506D01*
Y017285D02*
Y017813D01*
X041107Y025133D02*
Y027535D01*
X043508Y025133D02*
Y027535D01*
X041107D02*
X043508D01*
X041107Y025133D02*
X043508D01*
D12*
X03Y0263D02*
G03*
X0295Y0263I-00025J0D01*
G01*
X0305D02*
G03*
X03Y0263I-00025J0D01*
G01*
X0315D02*
G03*
X0315Y0263I-0015J0D01*
G01*
X022905Y01217D02*
Y012785D01*
X023105Y012585D01*
X022705D02*
X022905Y012785D01*
X02095Y01215D02*
X02485D01*
X02095D02*
Y015105D01*
X02485Y01215D02*
Y015105D01*
X02095D02*
X02485D01*
X021622Y02129D02*
X025678D01*
X021622Y01799D02*
X022378Y017235D01*
X021622Y01799D02*
Y02129D01*
X022378Y017235D02*
X024922D01*
X025678Y01799D01*
Y02129D01*
X030845Y01253D02*
Y013145D01*
X031045Y012945D01*
X030645D02*
X030845Y013145D01*
X02865Y012945D02*
X02885Y013145D01*
X02905Y012945D01*
X02885Y01253D02*
Y013145D01*
X026855Y01253D02*
Y013145D01*
X027055Y012945D01*
X026655D02*
X026855Y013145D01*
X03277Y01211D02*
Y0151D01*
X02495D02*
X03277D01*
X02495Y01211D02*
X03277D01*
X02495D02*
Y0151D01*
X029107Y035301D02*
Y037899D01*
X026509Y037466D02*
X026942Y037899D01*
X029107D01*
X026509Y035734D02*
Y037466D01*
Y035734D02*
X026942Y035301D01*
X029107D01*
X02796Y028822D02*
Y032878D01*
X03126Y028822D02*
X032015Y029578D01*
X02796Y028822D02*
X03126D01*
X032015Y029578D02*
Y032122D01*
X03126Y032878D02*
X032015Y032122D01*
X02796Y032878D02*
X03126D01*
X0365Y0339D02*
Y04455D01*
Y0339D02*
X04555D01*
Y04455D01*
X0365D02*
X04555D01*
X03717Y02974D02*
X03762D01*
X03818D02*
X03863D01*
Y03196D01*
X03717Y02974D02*
Y03196D01*
X03765Y03035D02*
Y03135D01*
X03815D01*
Y03035D02*
Y03135D01*
X03765Y03035D02*
X03815D01*
X03717Y03196D02*
X03762D01*
X03818D02*
X03863D01*
X045055Y01217D02*
Y012785D01*
X045255Y012585D01*
X044855D02*
X045055Y012785D01*
X0431Y01215D02*
X047D01*
X0431D02*
Y015105D01*
X047Y01215D02*
Y015105D01*
X0431D02*
X047D01*
X0573Y01785D02*
Y02865D01*
X0461D02*
X0573D01*
X0461D02*
X04615Y0286D01*
Y01785D02*
Y0286D01*
Y01785D02*
X0573D01*
X0559Y031D02*
Y05275D01*
Y031D02*
X05595Y03095D01*
X0465D02*
X05595D01*
X0465Y05275D02*
X0559D01*
X0465Y03095D02*
Y05275D01*
X049205Y01217D02*
Y012785D01*
X049405Y012585D01*
X049005D02*
X049205Y012785D01*
X04725Y01215D02*
X05115D01*
X04725D02*
Y015105D01*
X05115Y01215D02*
Y015105D01*
X04725D02*
X05115D01*
X02565Y011771D02*
X025729Y01185D01*
X025886D01*
X025965Y011771D01*
Y011456D01*
X025886Y011377D01*
X025729D01*
X02565Y011456D01*
Y011771D01*
X044075Y033046D02*
X044154Y033125D01*
X044312D01*
X04439Y033046D01*
Y032731D01*
X044312Y032653D01*
X044154D01*
X044075Y032731D01*
Y033046D01*
X042875Y033096D02*
X042954Y033175D01*
X043112D01*
X04319Y033096D01*
Y032781D01*
X043112Y032703D01*
X042954D01*
X042875Y032781D01*
Y033096D01*
X042076D02*
X042154Y033175D01*
X042312D01*
X04239Y033096D01*
Y032781D01*
X042312Y032703D01*
X042154D01*
X042076Y032781D01*
Y033096D01*
X040975Y032946D02*
X041054Y033025D01*
X041212D01*
X04129Y032946D01*
Y032631D01*
X041212Y032553D01*
X041054D01*
X040975Y032631D01*
Y032946D01*
X039976Y032996D02*
X040054Y033075D01*
X040212D01*
X04029Y032996D01*
Y032681D01*
X040212Y032603D01*
X040054D01*
X039976Y032681D01*
Y032996D01*
X04985Y011377D02*
Y01185D01*
X050086D01*
X050165Y011771D01*
Y011614D01*
X050086Y011535D01*
X04985D01*
X050007D02*
X050165Y011377D01*
X050322Y01185D02*
X050637Y011377D01*
Y01185D02*
X050322Y011377D01*
X0477Y01185D02*
X048015D01*
X047857D01*
Y011377D01*
X048172Y01185D02*
X048487Y011377D01*
Y01185D02*
X048172Y011377D01*
X045765Y011771D02*
X045686Y01185D01*
X045529D01*
X04545Y011771D01*
Y011692D01*
X045529Y011614D01*
X045686D01*
X045765Y011535D01*
Y011456D01*
X045686Y011377D01*
X045529D01*
X04545Y011456D01*
X046237Y011771D02*
X046158Y01185D01*
X046001D01*
X045922Y011771D01*
Y011456D01*
X046001Y011377D01*
X046158D01*
X046237Y011456D01*
X046395Y01185D02*
Y011377D01*
X046709D01*
X043665Y011771D02*
X043586Y01185D01*
X043429D01*
X04335Y011771D01*
Y011692D01*
X043429Y011614D01*
X043586D01*
X043665Y011535D01*
Y011456D01*
X043586Y011377D01*
X043429D01*
X04335Y011456D01*
X043822Y01185D02*
Y011377D01*
X044058D01*
X044137Y011456D01*
Y011771D01*
X044058Y01185D01*
X043822D01*
X044295Y011377D02*
Y011692D01*
X044452Y01185D01*
X044609Y011692D01*
Y011377D01*
Y011614D01*
X044295D01*
X0412Y011377D02*
Y011692D01*
X041357Y01185D01*
X041515Y011692D01*
Y011377D01*
Y011614D01*
X0412D01*
X041672Y01185D02*
X04183D01*
X041751D01*
Y011377D01*
X041672D01*
X04183D01*
X042066Y011771D02*
X042145Y01185D01*
X042302D01*
X042381Y011771D01*
Y011456D01*
X042302Y011377D01*
X042145D01*
X042066Y011456D01*
Y011771D01*
X0394Y01185D02*
X039557D01*
X039479D01*
Y011377D01*
X0394D01*
X039557D01*
X039794D02*
Y011692D01*
X04003D01*
X040108Y011614D01*
Y011377D01*
X040266Y011771D02*
X040345Y01185D01*
X040502D01*
X040581Y011771D01*
Y011692D01*
X040502Y011614D01*
X040423D01*
X040502D01*
X040581Y011535D01*
Y011456D01*
X040502Y011377D01*
X040345D01*
X040266Y011456D01*
X0374Y01185D02*
X037557D01*
X037479D01*
Y011377D01*
X0374D01*
X037557D01*
X037794D02*
Y011692D01*
X03803D01*
X038108Y011614D01*
Y011377D01*
X038581D02*
X038266D01*
X038581Y011692D01*
Y011771D01*
X038502Y01185D01*
X038345D01*
X038266Y011771D01*
X0354Y01185D02*
X035557D01*
X035479D01*
Y011377D01*
X0354D01*
X035557D01*
X035794D02*
Y011692D01*
X03603D01*
X036108Y011614D01*
Y011377D01*
X036266D02*
X036423D01*
X036345D01*
Y01185D01*
X036266Y011771D01*
X031428Y011614D02*
X031743D01*
X031585Y011771D02*
Y011456D01*
X032215Y01185D02*
X0319D01*
Y011614D01*
X032058Y011692D01*
X032136D01*
X032215Y011614D01*
Y011456D01*
X032136Y011377D01*
X031979D01*
X0319Y011456D01*
X029485Y011614D02*
X0298D01*
X029643Y011771D02*
Y011456D01*
X030272Y01185D02*
X029958D01*
Y011614D01*
X030115Y011692D01*
X030194D01*
X030272Y011614D01*
Y011456D01*
X030194Y011377D01*
X030036D01*
X029958Y011456D01*
X02745Y011614D02*
X027765D01*
X027607Y011771D02*
Y011456D01*
X028237Y01185D02*
X027922D01*
Y011614D01*
X02808Y011692D01*
X028158D01*
X028237Y011614D01*
Y011456D01*
X028158Y011377D01*
X028001D01*
X027922Y011456D01*
X0334Y011822D02*
Y011507D01*
X033557Y01135D01*
X033715Y011507D01*
Y011822D01*
X034187Y011744D02*
X034108Y011822D01*
X033951D01*
X033872Y011744D01*
Y011665D01*
X033951Y011586D01*
X034108D01*
X034187Y011507D01*
Y011429D01*
X034108Y01135D01*
X033951D01*
X033872Y011429D01*
X034659Y011744D02*
X034581Y011822D01*
X034423D01*
X034345Y011744D01*
Y011665D01*
X034423Y011586D01*
X034581D01*
X034659Y011507D01*
Y011429D01*
X034581Y01135D01*
X034423D01*
X034345Y011429D01*
X023686Y011771D02*
X023764Y01185D01*
X023922D01*
X024Y011771D01*
Y011456D01*
X023922Y011377D01*
X023764D01*
X023686Y011456D01*
Y011771D01*
X021086Y011614D02*
X0214D01*
X021243Y011771D02*
Y011456D01*
X021873Y011377D02*
X021558D01*
X021873Y011692D01*
Y011771D01*
X021794Y01185D01*
X021637D01*
X021558Y011771D01*
X022266Y011377D02*
Y01185D01*
X02203Y011614D01*
X022345D01*
X021623Y033667D02*
Y033167D01*
X021723Y033067D01*
X021923D01*
X022023Y033167D01*
Y033667D01*
X022223Y033567D02*
X022323Y033667D01*
X022523D01*
X022623Y033567D01*
Y033467D01*
X022523Y033367D01*
X022423D01*
X022523D01*
X022623Y033267D01*
Y033167D01*
X022523Y033067D01*
X022323D01*
X022223Y033167D01*
X02207Y022625D02*
X02197Y022725D01*
X02177D01*
X02167Y022625D01*
Y022225D01*
X02177Y022125D01*
X02197D01*
X02207Y022225D01*
X02267Y022725D02*
X02247Y022625D01*
X02227Y022425D01*
Y022225D01*
X02237Y022125D01*
X02257D01*
X02267Y022225D01*
Y022325D01*
X02257Y022425D01*
X02227D01*
X02266Y029089D02*
X02256Y029189D01*
X02236D01*
X02226Y029089D01*
Y02869D01*
X02236Y02859D01*
X02256D01*
X02266Y02869D01*
X02286Y02859D02*
X02306D01*
X02296D01*
Y029189D01*
X02286Y029089D01*
X02336Y02859D02*
X02356D01*
X02346D01*
Y029189D01*
X02336Y029089D01*
X02366Y034339D02*
X02356Y034439D01*
X02336D01*
X02326Y034339D01*
Y03394D01*
X02336Y03384D01*
X02356D01*
X02366Y03394D01*
X02386Y03384D02*
X02406D01*
X02396D01*
Y034439D01*
X02386Y034339D01*
X02476Y03384D02*
X02436D01*
X02476Y034239D01*
Y034339D01*
X02466Y034439D01*
X02446D01*
X02436Y034339D01*
X026338Y038752D02*
X026238Y038852D01*
X026038D01*
X025938Y038752D01*
Y038352D01*
X026038Y038252D01*
X026238D01*
X026338Y038352D01*
X026538Y038252D02*
X026738D01*
X026638D01*
Y038852D01*
X026538Y038752D01*
X027038D02*
X027138Y038852D01*
X027338D01*
X027438Y038752D01*
Y038352D01*
X027338Y038252D01*
X027138D01*
X027038Y038352D01*
Y038752D01*
X026585Y01955D02*
Y02015D01*
X026885D01*
X026985Y02005D01*
Y01985D01*
X026885Y01975D01*
X026585D01*
X026785D02*
X026985Y01955D01*
X027185Y02005D02*
X027285Y02015D01*
X027485D01*
X027585Y02005D01*
Y01995D01*
X027485Y01985D01*
X027385D01*
X027485D01*
X027585Y01975D01*
Y01965D01*
X027485Y01955D01*
X027285D01*
X027185Y01965D01*
X026595Y018745D02*
Y019345D01*
X026895D01*
X026995Y019245D01*
Y019045D01*
X026895Y018945D01*
X026595D01*
X026795D02*
X026995Y018745D01*
X027595Y019345D02*
X027195D01*
Y019045D01*
X027395Y019145D01*
X027495D01*
X027595Y019045D01*
Y018845D01*
X027495Y018745D01*
X027295D01*
X027195Y018845D01*
X026905Y021153D02*
X026805Y021253D01*
X026605D01*
X026505Y021153D01*
Y020753D01*
X026605Y020653D01*
X026805D01*
X026905Y020753D01*
X027105D02*
X027204Y020653D01*
X027404D01*
X027504Y020753D01*
Y021153D01*
X027404Y021253D01*
X027204D01*
X027105Y021153D01*
Y021053D01*
X027204Y020953D01*
X027504D01*
X027927Y033722D02*
X027827Y033822D01*
X027627D01*
X027527Y033722D01*
Y033323D01*
X027627Y033223D01*
X027827D01*
X027927Y033323D01*
X028527Y033822D02*
X028127D01*
Y033523D01*
X028327Y033622D01*
X028427D01*
X028527Y033523D01*
Y033323D01*
X028427Y033223D01*
X028227D01*
X028127Y033323D01*
X02811Y02027D02*
Y01967D01*
X02851D01*
X02911D02*
X02871D01*
X02911Y02007D01*
Y02017D01*
X02901Y02027D01*
X02881D01*
X02871Y02017D01*
X02806Y01947D02*
Y01887D01*
X02846D01*
X02866Y01937D02*
X02876Y01947D01*
X02896D01*
X02906Y01937D01*
Y01927D01*
X02896Y01917D01*
X02886D01*
X02896D01*
X02906Y01907D01*
Y01897D01*
X02896Y01887D01*
X02876D01*
X02866Y01897D01*
X02845Y02376D02*
Y02436D01*
X02875D01*
X02885Y02426D01*
Y02406D01*
X02875Y02396D01*
X02845D01*
X02865D02*
X02885Y02376D01*
X02945Y02436D02*
X02925Y02426D01*
X02905Y02406D01*
Y02386D01*
X02915Y02376D01*
X02935D01*
X02945Y02386D01*
Y02396D01*
X02935Y02406D01*
X02905D01*
X028635Y02115D02*
X028535Y02125D01*
X028335D01*
X028235Y02115D01*
Y02075D01*
X028335Y02065D01*
X028535D01*
X028635Y02075D01*
X028835Y02115D02*
X028935Y02125D01*
X029135D01*
X029235Y02115D01*
Y02105D01*
X029135Y02095D01*
X029235Y02085D01*
Y02075D01*
X029135Y02065D01*
X028935D01*
X028835Y02075D01*
Y02085D01*
X028935Y02095D01*
X028835Y02105D01*
Y02115D01*
X028935Y02095D02*
X029135D01*
X02839Y02887D02*
Y02827D01*
X02879D01*
X02899D02*
X02919D01*
X02909D01*
Y02887D01*
X02899Y02877D01*
X03002Y0241D02*
X02992Y0242D01*
X02972D01*
X02962Y0241D01*
Y0237D01*
X02972Y0236D01*
X02992D01*
X03002Y0237D01*
X03052Y0236D02*
Y0242D01*
X03022Y0239D01*
X03062D01*
X0318Y024219D02*
X0317Y024319D01*
X0315D01*
X0314Y024219D01*
Y023819D01*
X0315Y023719D01*
X0317D01*
X0318Y023819D01*
X032Y024319D02*
X0324D01*
Y024219D01*
X032Y023819D01*
Y023719D01*
X033445Y026695D02*
X033345Y026795D01*
X033145D01*
X033045Y026695D01*
Y026295D01*
X033145Y026195D01*
X033345D01*
X033445Y026295D01*
X033645Y026195D02*
X033845D01*
X033745D01*
Y026795D01*
X033645Y026695D01*
X033445Y027645D02*
X033345Y027745D01*
X033145D01*
X033045Y027645D01*
Y027245D01*
X033145Y027145D01*
X033345D01*
X033445Y027245D01*
X033645Y027645D02*
X033745Y027745D01*
X033945D01*
X034045Y027645D01*
Y027545D01*
X033945Y027445D01*
X033845D01*
X033945D01*
X034045Y027345D01*
Y027245D01*
X033945Y027145D01*
X033745D01*
X033645Y027245D01*
X0331Y030104D02*
Y030704D01*
X0334D01*
X0335Y030604D01*
Y030404D01*
X0334Y030304D01*
X0331D01*
X0333D02*
X0335Y030104D01*
X033699D02*
X033899D01*
X033799D01*
Y030704D01*
X033699Y030604D01*
X033756Y021652D02*
Y022252D01*
X034056D01*
X034156Y022152D01*
Y021952D01*
X034056Y021852D01*
X033756D01*
X033956D02*
X034156Y021652D01*
X034356Y022252D02*
X034756D01*
Y022152D01*
X034356Y021752D01*
Y021652D01*
X033806Y018754D02*
Y019354D01*
X034106D01*
X034206Y019254D01*
Y019054D01*
X034106Y018954D01*
X033806D01*
X034006D02*
X034206Y018754D01*
X034406Y019254D02*
X034506Y019354D01*
X034706D01*
X034806Y019254D01*
Y019154D01*
X034706Y019054D01*
X034806Y018954D01*
Y018854D01*
X034706Y018754D01*
X034506D01*
X034406Y018854D01*
Y018954D01*
X034506Y019054D01*
X034406Y019154D01*
Y019254D01*
X034506Y019054D02*
X034706D01*
X035155Y021428D02*
Y020928D01*
X035255Y020828D01*
X035455D01*
X035555Y020928D01*
Y021428D01*
X036055Y020828D02*
Y021428D01*
X035755Y021128D01*
X036155D01*
X03575Y02885D02*
Y02945D01*
X03605D01*
X03615Y02935D01*
Y02915D01*
X03605Y02905D01*
X03575D01*
X03595D02*
X03615Y02885D01*
X03675D02*
X03635D01*
X03675Y02925D01*
Y02935D01*
X03665Y02945D01*
X03645D01*
X03635Y02935D01*
X037605Y021428D02*
Y020928D01*
X037705Y020828D01*
X037905D01*
X038005Y020928D01*
Y021428D01*
X038605D02*
X038205D01*
Y021128D01*
X038405Y021228D01*
X038505D01*
X038605Y021128D01*
Y020928D01*
X038505Y020828D01*
X038305D01*
X038205Y020928D01*
X040462Y029179D02*
Y028679D01*
X040562Y028579D01*
X040762D01*
X040862Y028679D01*
Y029179D01*
X041062Y028579D02*
X041262D01*
X041162D01*
Y029179D01*
X041062Y029079D01*
X041785Y020515D02*
Y019915D01*
X042185D01*
X042385Y020415D02*
X042485Y020515D01*
X042685D01*
X042785Y020415D01*
Y020315D01*
X042685Y020215D01*
X042785Y020115D01*
Y020015D01*
X042685Y019915D01*
X042485D01*
X042385Y020015D01*
Y020115D01*
X042485Y020215D01*
X042385Y020315D01*
Y020415D01*
X042485Y020215D02*
X042685D01*
X044535Y020515D02*
Y019915D01*
X044935D01*
X045535Y020515D02*
X045335Y020415D01*
X045135Y020215D01*
Y020015D01*
X045235Y019915D01*
X045435D01*
X045535Y020015D01*
Y020115D01*
X045435Y020215D01*
X045135D01*
X04545Y02776D02*
X04535Y02786D01*
X04515D01*
X04505Y02776D01*
Y02736D01*
X04515Y02726D01*
X04535D01*
X04545Y02736D01*
X04605Y02726D02*
X04565D01*
X04605Y02766D01*
Y02776D01*
X04595Y02786D01*
X04575D01*
X04565Y02776D01*
X021664Y037538D02*
Y037938D01*
X021864Y038138D01*
X022064Y037938D01*
Y037538D01*
Y037838D01*
X021664D01*
X022264Y037538D02*
Y038138D01*
X022464Y037938D01*
X022664Y038138D01*
Y037538D01*
X023264Y038038D02*
X023164Y038138D01*
X022964D01*
X022864Y038038D01*
Y037938D01*
X022964Y037838D01*
X023164D01*
X023264Y037738D01*
Y037638D01*
X023164Y037538D01*
X022964D01*
X022864Y037638D01*
X023464Y037538D02*
X023664D01*
X023564D01*
Y038138D01*
X023464Y038038D01*
X03511Y02252D02*
Y02192D01*
X03551D01*
X03601D02*
Y02252D01*
X03571Y02222D01*
X03611D01*
X03769Y02252D02*
Y02192D01*
X03809D01*
X03869Y02252D02*
X03829D01*
Y02222D01*
X03849Y02232D01*
X03859D01*
X03869Y02222D01*
Y02202D01*
X03859Y02192D01*
X03839D01*
X03829Y02202D01*
X04316Y020515D02*
Y019915D01*
X04356D01*
X04376Y020515D02*
X04416D01*
Y020415D01*
X04376Y020015D01*
Y019915D01*
X03981Y02025D02*
Y02085D01*
X04011D01*
X04021Y02075D01*
Y02055D01*
X04011Y02045D01*
X03981D01*
X04001D02*
X04021Y02025D01*
X04041Y02035D02*
X04051Y02025D01*
X04071D01*
X04081Y02035D01*
Y02075D01*
X04071Y02085D01*
X04051D01*
X04041Y02075D01*
Y02065D01*
X04051Y02055D01*
X04081D01*
X03702Y02955D02*
Y02945D01*
X03722Y02925D01*
X03742Y02945D01*
Y02955D01*
X03722Y02925D02*
Y02895D01*
X03762D02*
X03782D01*
X03772D01*
Y02955D01*
X03762Y02945D01*
X021629Y027331D02*
Y026831D01*
X021729Y026731D01*
X021929D01*
X022029Y026831D01*
Y027331D01*
X022629Y026731D02*
X022229D01*
X022629Y027131D01*
Y027231D01*
X022529Y027331D01*
X022329D01*
X022229Y027231D01*
X039856Y018154D02*
Y018754D01*
X040156D01*
X040256Y018654D01*
Y018454D01*
X040156Y018354D01*
X039856D01*
X040056D02*
X040256Y018154D01*
X040456D02*
X040656D01*
X040556D01*
Y018754D01*
X040456Y018654D01*
X040956D02*
X041056Y018754D01*
X041256D01*
X041356Y018654D01*
Y018254D01*
X041256Y018154D01*
X041056D01*
X040956Y018254D01*
Y018654D01*
X0305Y0237D02*
Y0243D01*
X0308D01*
X0309Y0242D01*
Y024D01*
X0308Y0239D01*
X0305D01*
X0307D02*
X0309Y0237D01*
X0314D02*
Y0243D01*
X0311Y024D01*
X0315D01*
X046545Y053705D02*
Y053105D01*
X046945D01*
X047245D02*
X047445D01*
X047545Y053205D01*
Y053405D01*
X047445Y053505D01*
X047245D01*
X047145Y053405D01*
Y053205D01*
X047245Y053105D01*
X047745Y053505D02*
Y053105D01*
Y053305D01*
X047845Y053405D01*
X047945Y053505D01*
X048045D01*
X048444D02*
X048644D01*
X048744Y053405D01*
Y053105D01*
X048444D01*
X048344Y053205D01*
X048444Y053305D01*
X048744D01*
X049544Y053105D02*
Y053505D01*
X049644D01*
X049744Y053405D01*
Y053105D01*
Y053405D01*
X049844Y053505D01*
X049944Y053405D01*
Y053105D01*
X050244D02*
X050444D01*
X050544Y053205D01*
Y053405D01*
X050444Y053505D01*
X050244D01*
X050144Y053405D01*
Y053205D01*
X050244Y053105D01*
X051144Y053705D02*
Y053105D01*
X050844D01*
X050744Y053205D01*
Y053405D01*
X050844Y053505D01*
X051144D01*
X051343D02*
Y053205D01*
X051443Y053105D01*
X051743D01*
Y053505D01*
X051943Y053105D02*
X052143D01*
X052043D01*
Y053705D01*
X051943D01*
X052743Y053105D02*
X052543D01*
X052443Y053205D01*
Y053405D01*
X052543Y053505D01*
X052743D01*
X052843Y053405D01*
Y053305D01*
X052443D01*
X053043Y053105D02*
X053243D01*
X053143D01*
Y053705D01*
X053043Y053605D01*
X04615Y0296D02*
Y029D01*
X04655D01*
X04715Y0294D02*
X04685D01*
X04675Y0293D01*
Y0291D01*
X04685Y029D01*
X04715D01*
X047749Y0296D02*
Y029D01*
X04745D01*
X04735Y0291D01*
Y0293D01*
X04745Y0294D01*
X047749D01*
X048649Y029D02*
X048849D01*
X048949Y0291D01*
Y0293D01*
X048849Y0294D01*
X048649D01*
X048549Y0293D01*
Y0291D01*
X048649Y029D01*
X049149D02*
X049349D01*
X049249D01*
Y0296D01*
X049149D01*
X049949Y029D02*
X049749D01*
X049649Y0291D01*
Y0293D01*
X049749Y0294D01*
X049949D01*
X050049Y0293D01*
Y0292D01*
X049649D01*
X050649Y0296D02*
Y029D01*
X050349D01*
X050249Y0291D01*
Y0293D01*
X050349Y0294D01*
X050649D01*
X051448Y029D02*
X051648D01*
X051548D01*
Y0296D01*
X051448Y0295D01*
X036955Y045505D02*
X036555D01*
Y044905D01*
X036955D01*
X036555Y045205D02*
X036755D01*
X037255Y045405D02*
Y045305D01*
X037155D01*
X037355D01*
X037255D01*
Y045005D01*
X037355Y044905D01*
X037655Y045505D02*
Y044905D01*
Y045205D01*
X037755Y045305D01*
X037955D01*
X038055Y045205D01*
Y044905D01*
X038554D02*
X038354D01*
X038254Y045005D01*
Y045205D01*
X038354Y045305D01*
X038554D01*
X038654Y045205D01*
Y045105D01*
X038254D01*
X038854Y045305D02*
Y044905D01*
Y045105D01*
X038954Y045205D01*
X039054Y045305D01*
X039154D01*
X039454Y044905D02*
Y045305D01*
X039754D01*
X039854Y045205D01*
Y044905D01*
X040354D02*
X040154D01*
X040054Y045005D01*
Y045205D01*
X040154Y045305D01*
X040354D01*
X040454Y045205D01*
Y045105D01*
X040054D01*
X040754Y045405D02*
Y045305D01*
X040654D01*
X040854D01*
X040754D01*
Y045005D01*
X040854Y044905D01*
X041753D02*
Y045305D01*
X041853D01*
X041953Y045205D01*
Y044905D01*
Y045205D01*
X042053Y045305D01*
X042153Y045205D01*
Y044905D01*
X042453D02*
X042653D01*
X042753Y045005D01*
Y045205D01*
X042653Y045305D01*
X042453D01*
X042353Y045205D01*
Y045005D01*
X042453Y044905D01*
X043353Y045505D02*
Y044905D01*
X043053D01*
X042953Y045005D01*
Y045205D01*
X043053Y045305D01*
X043353D01*
X043553D02*
Y045005D01*
X043653Y044905D01*
X043953D01*
Y045305D01*
X044153Y044905D02*
X044352D01*
X044253D01*
Y045505D01*
X044153D01*
X044952Y044905D02*
X044752D01*
X044652Y045005D01*
Y045205D01*
X044752Y045305D01*
X044952D01*
X045052Y045205D01*
Y045105D01*
X044652D01*
X045252Y044905D02*
X045452D01*
X045352D01*
Y045505D01*
X045252Y045405D01*
X02927Y0356D02*
Y035D01*
X02957D01*
X02967Y0351D01*
Y0355D01*
X02957Y0356D01*
X02927D01*
X03027Y035D02*
X02987D01*
X03027Y0354D01*
Y0355D01*
X03017Y0356D01*
X02997D01*
X02987Y0355D01*
X02524Y0292D02*
Y0286D01*
X02554D01*
X02564Y0287D01*
Y0291D01*
X02554Y0292D01*
X02524D01*
X02584Y0286D02*
X02604D01*
X02594D01*
Y0292D01*
X02584Y0291D01*
X037225Y033405D02*
Y032805D01*
X037525D01*
X037625Y032905D01*
Y033005D01*
X037525Y033105D01*
X037225D01*
X037525D01*
X037625Y033205D01*
Y033305D01*
X037525Y033405D01*
X037225D01*
X037825D02*
X038225D01*
X038025D01*
Y032805D01*
X038425D02*
X038625D01*
X038525D01*
Y033405D01*
X038425Y033305D01*
D13*
X041618Y027141D02*
G03*
X041618Y027141I-000118J0D01*
G01*
D14*
X042903Y012125D02*
Y015668D01*
X03306Y012125D02*
Y015668D01*
X042903D01*
X03306Y012125D02*
X042903D01*
X022472Y029872D02*
Y030069D01*
Y032431D02*
Y032628D01*
X024834Y029872D02*
Y032628D01*
Y031959D02*
X025306D01*
X024834D02*
Y032353D01*
X025306D01*
X024834Y031054D02*
X025149D01*
X024834D02*
Y031447D01*
X025149D01*
Y031054D02*
Y031447D01*
X024834Y030542D02*
X025306D01*
X024834Y030148D02*
Y030542D01*
Y030148D02*
X025306D01*
X022472Y032628D02*
X024834D01*
X022472Y029872D02*
X024834D01*
X022343Y0262D02*
X025565D01*
Y0222D02*
Y0262D01*
X022343Y0222D02*
X025565D01*
X025833Y028192D02*
X026794D01*
X025833Y027208D02*
X026794D01*
X037Y023473D02*
Y028073D01*
X0384D02*
X0389D01*
X037D02*
X0375D01*
X037Y023473D02*
X0375D01*
X03795Y026023D02*
Y026223D01*
X03765Y026023D02*
X03825D01*
X03745Y025873D02*
X03845D01*
X03745Y025673D02*
Y025873D01*
Y025673D02*
X03845D01*
Y025873D01*
X03765Y025523D02*
X03825D01*
X03795Y025323D02*
Y025523D01*
X0389Y023473D02*
Y028073D01*
X0384Y023473D02*
X0389D01*
D15*
X02701Y01916D02*
X02709D01*
X02701Y01884D02*
X02709D01*
X02651Y01877D02*
X02758D01*
X02651D02*
Y01923D01*
X02758D01*
Y01877D02*
Y01923D01*
X02701Y01804D02*
X02709D01*
X02701Y01836D02*
X02709D01*
X02652Y01843D02*
X02759D01*
Y01797D02*
Y01843D01*
X02652Y01797D02*
X02759D01*
X02652D02*
Y01843D01*
X026425Y01987D02*
Y02033D01*
Y01987D02*
X027495D01*
Y02033D01*
X026425D02*
X027495D01*
X026915Y02026D02*
X026995D01*
X026915Y01994D02*
X026995D01*
X0292Y0193D02*
Y01935D01*
X0283D02*
X0292D01*
X0283Y0193D02*
Y01935D01*
X0292Y01865D02*
Y0187D01*
X0283Y01865D02*
X0292D01*
X0283D02*
Y0187D01*
X02825Y01785D02*
Y0179D01*
Y01785D02*
X02915D01*
Y0179D01*
X02825Y0185D02*
Y01855D01*
X02915D01*
Y0185D02*
Y01855D01*
X02876Y02286D02*
Y02294D01*
X02844Y02286D02*
Y02294D01*
X02837Y02237D02*
Y02344D01*
X02883D01*
Y02237D02*
Y02344D01*
X02837Y02237D02*
X02883D01*
X02923Y01987D02*
Y02033D01*
X02816D02*
X02923D01*
X02816Y01987D02*
Y02033D01*
Y01987D02*
X02923D01*
X02866Y01994D02*
X02874D01*
X02866Y02026D02*
X02874D01*
X03049Y02281D02*
Y02289D01*
X03081Y02281D02*
Y02289D01*
X03088Y02231D02*
Y02338D01*
X03042Y02231D02*
X03088D01*
X03042D02*
Y02338D01*
X03088D01*
X03132Y022325D02*
X03178D01*
Y023395D01*
X03132D02*
X03178D01*
X03132Y022325D02*
Y023395D01*
X03139Y022815D02*
Y022895D01*
X03171Y022815D02*
Y022895D01*
X03297Y02542D02*
Y02588D01*
Y02542D02*
X03404D01*
Y02588D01*
X03297D02*
X03404D01*
X03346Y02581D02*
X03354D01*
X03346Y02549D02*
X03354D01*
X03346Y02644D02*
X03354D01*
X03346Y02676D02*
X03354D01*
X03297Y02683D02*
X03404D01*
Y02637D02*
Y02683D01*
X03297Y02637D02*
X03404D01*
X03297D02*
Y02683D01*
X03541Y0208D02*
X03671D01*
X03541Y0216D02*
X03671D01*
X03541Y0208D02*
Y02082D01*
X03671Y0208D02*
Y02082D01*
Y02157D02*
Y0216D01*
X03541Y02158D02*
Y0216D01*
X03574Y02796D02*
Y02804D01*
X03606Y02796D02*
Y02804D01*
X03613Y02746D02*
Y02853D01*
X03567Y02746D02*
X03613D01*
X03567D02*
Y02853D01*
X03613D01*
X03799Y0208D02*
X03929D01*
X03799Y0216D02*
X03929D01*
X03799Y0208D02*
Y02082D01*
X03929Y0208D02*
Y02082D01*
Y02157D02*
Y0216D01*
X03799Y02158D02*
Y0216D01*
X04248Y01921D02*
X0425D01*
X04247Y01791D02*
X0425D01*
X0417D02*
X04172D01*
X0417Y01921D02*
X04172D01*
X0425Y01791D02*
Y01921D01*
X0417Y01791D02*
Y01921D01*
X043855D02*
X043875D01*
X043845Y01791D02*
X043875D01*
X043075D02*
X043095D01*
X043075Y01921D02*
X043095D01*
X043875Y01791D02*
Y01921D01*
X043075Y01791D02*
Y01921D01*
X04523D02*
X04525D01*
X04522Y01791D02*
X04525D01*
X04445D02*
X04447D01*
X04445Y01921D02*
X04447D01*
X04525Y01791D02*
Y01921D01*
X04445Y01791D02*
Y01921D01*
X044965Y02587D02*
X045425D01*
Y02694D01*
X044965D02*
X045425D01*
X044965Y02587D02*
Y02694D01*
X045035Y02636D02*
Y02644D01*
X045355Y02636D02*
Y02644D01*
D16*
X031056Y034566D02*
Y034661D01*
X02925D02*
X031056D01*
X0292D02*
X02925D01*
X0292Y0344D02*
Y034661D01*
Y0344D02*
X02925D01*
Y034661D01*
Y033939D02*
Y0342D01*
X0292D02*
X02925D01*
X0292Y033939D02*
Y0342D01*
Y033939D02*
X02925D01*
X031056D01*
Y034034D01*
D17*
X02954Y02252D02*
Y02328D01*
X02985D01*
Y02252D02*
Y02328D01*
X02954Y02252D02*
X02985D01*
X0296Y02284D02*
Y02296D01*
X0298Y02284D02*
Y02296D01*
D18*
X03367Y028986D02*
Y029166D01*
X03313Y028986D02*
Y029166D01*
X03432Y020534D02*
Y020714D01*
X03378Y020534D02*
Y020714D01*
X03383Y017636D02*
Y017816D01*
X03437Y017636D02*
Y017816D01*
X04037Y019136D02*
Y019316D01*
X03983Y019136D02*
Y019316D01*
X03988Y017036D02*
Y017216D01*
X04042Y017036D02*
Y017216D01*
D19*
X0379Y03085D02*
D03*
M02*
