G04*
G04 #@! TF.GenerationSoftware,Altium Limited,Altium Designer,20.1.11 (218)*
G04*
G04 Layer_Color=8421504*
%FSTAX24Y24*%
%MOIN*%
G70*
G04*
G04 #@! TF.SameCoordinates,6DBB7448-FED5-465F-904A-7FE87FEFC6C8*
G04*
G04*
G04 #@! TF.FilePolarity,Positive*
G04*
G01*
G75*
G04:AMPARAMS|DCode=20|XSize=39.4mil|YSize=78.7mil|CornerRadius=4.9mil|HoleSize=0mil|Usage=FLASHONLY|Rotation=90.000|XOffset=0mil|YOffset=0mil|HoleType=Round|Shape=RoundedRectangle|*
%AMROUNDEDRECTD20*
21,1,0.0394,0.0689,0,0,90.0*
21,1,0.0295,0.0787,0,0,90.0*
1,1,0.0098,0.0344,0.0148*
1,1,0.0098,0.0344,-0.0148*
1,1,0.0098,-0.0344,-0.0148*
1,1,0.0098,-0.0344,0.0148*
%
%ADD20ROUNDEDRECTD20*%
G04:AMPARAMS|DCode=21|XSize=216.5mil|YSize=224.4mil|CornerRadius=27.1mil|HoleSize=0mil|Usage=FLASHONLY|Rotation=90.000|XOffset=0mil|YOffset=0mil|HoleType=Round|Shape=RoundedRectangle|*
%AMROUNDEDRECTD21*
21,1,0.2165,0.1703,0,0,90.0*
21,1,0.1624,0.2244,0,0,90.0*
1,1,0.0541,0.0851,0.0812*
1,1,0.0541,0.0851,-0.0812*
1,1,0.0541,-0.0851,-0.0812*
1,1,0.0541,-0.0851,0.0812*
%
%ADD21ROUNDEDRECTD21*%
%ADD22R,0.0850X0.0421*%
%ADD23R,0.0945X0.0394*%
%ADD24R,0.0945X0.1299*%
%ADD25R,0.0787X0.1614*%
%ADD26R,0.0669X0.0669*%
%ADD27R,0.0461X0.0756*%
%ADD28R,0.1575X0.0787*%
%ADD29R,0.0394X0.0374*%
%ADD30R,0.1614X0.0787*%
%ADD31R,0.0500X0.0550*%
%ADD32R,0.0374X0.0394*%
%ADD33R,0.0354X0.0374*%
%ADD34R,0.0236X0.0256*%
%ADD35R,0.0551X0.0472*%
%ADD36R,0.0600X0.0650*%
%ADD37O,0.0630X0.0886*%
G04:AMPARAMS|DCode=38|XSize=216.5mil|YSize=59.1mil|CornerRadius=7.4mil|HoleSize=0mil|Usage=FLASHONLY|Rotation=270.000|XOffset=0mil|YOffset=0mil|HoleType=Round|Shape=RoundedRectangle|*
%AMROUNDEDRECTD38*
21,1,0.2165,0.0443,0,0,270.0*
21,1,0.2018,0.0591,0,0,270.0*
1,1,0.0148,-0.0221,-0.1009*
1,1,0.0148,-0.0221,0.1009*
1,1,0.0148,0.0221,0.1009*
1,1,0.0148,0.0221,-0.1009*
%
%ADD38ROUNDEDRECTD38*%
%ADD39R,0.0315X0.0472*%
%ADD40O,0.0531X0.0217*%
%ADD41O,0.0217X0.0531*%
%ADD42R,0.0650X0.0600*%
G36*
X02189Y023854D02*
X022914D01*
Y02283D01*
X02189D01*
Y023854D01*
D02*
G37*
G36*
X023386D02*
X02441D01*
Y02283D01*
X023386D01*
Y023854D01*
D02*
G37*
G36*
X02189Y02557D02*
X022914D01*
Y024546D01*
X02189D01*
Y02557D01*
D02*
G37*
G36*
X023386D02*
X02441D01*
Y024546D01*
X023386D01*
Y02557D01*
D02*
G37*
D20*
X0257Y030351D02*
D03*
Y03215D02*
D03*
D21*
X022787Y03125D02*
D03*
D22*
X027219Y022861D02*
D03*
Y023531D02*
D03*
Y0242D02*
D03*
Y024869D02*
D03*
Y025539D02*
D03*
D23*
X024442Y034894D02*
D03*
Y0358D02*
D03*
Y036706D02*
D03*
D24*
X022158Y0358D02*
D03*
D25*
X02365Y020975D02*
D03*
Y01755D02*
D03*
D26*
X0226Y02785D02*
D03*
X0239D02*
D03*
X0236Y0331D02*
D03*
X0249D02*
D03*
D27*
X02715Y0277D02*
D03*
X025477D02*
D03*
D28*
X026667Y0366D02*
D03*
X02895D02*
D03*
D29*
X026755Y019D02*
D03*
X027345D02*
D03*
Y0182D02*
D03*
X026755D02*
D03*
X026659Y0201D02*
D03*
X02725D02*
D03*
X028995D02*
D03*
X028405D02*
D03*
X033205Y02565D02*
D03*
X033795D02*
D03*
Y0266D02*
D03*
X033205D02*
D03*
D30*
X028275Y03085D02*
D03*
X0317D02*
D03*
D31*
X0283Y019D02*
D03*
X0292D02*
D03*
X02915Y0182D02*
D03*
X02825D02*
D03*
D32*
X0286Y023195D02*
D03*
Y022605D02*
D03*
X03065Y022555D02*
D03*
Y023145D02*
D03*
X03155Y022559D02*
D03*
Y02315D02*
D03*
X0359Y027705D02*
D03*
Y028295D02*
D03*
X045195Y026105D02*
D03*
Y026695D02*
D03*
D33*
X03077Y0343D02*
D03*
X02953D02*
D03*
D34*
X0297Y022683D02*
D03*
Y023117D02*
D03*
D35*
X0334Y02945D02*
D03*
Y028702D02*
D03*
X03405Y020998D02*
D03*
Y02025D02*
D03*
X0341Y017352D02*
D03*
Y0181D02*
D03*
X0401Y0196D02*
D03*
Y018852D02*
D03*
X04015Y016752D02*
D03*
Y0175D02*
D03*
D36*
X03535Y0212D02*
D03*
X03677D02*
D03*
X03793D02*
D03*
X03935D02*
D03*
D37*
X0355Y0167D02*
D03*
X0365D02*
D03*
Y020046D02*
D03*
X0355D02*
D03*
X03795Y0167D02*
D03*
X03895D02*
D03*
Y020046D02*
D03*
X03795D02*
D03*
D38*
Y0241D02*
D03*
Y027446D02*
D03*
D39*
X0379Y029472D02*
D03*
Y032228D02*
D03*
D40*
X040674Y027436D02*
D03*
Y027121D02*
D03*
Y026806D02*
D03*
Y026491D02*
D03*
Y026176D02*
D03*
Y025861D02*
D03*
Y025546D02*
D03*
Y025231D02*
D03*
X043941D02*
D03*
Y025546D02*
D03*
Y025861D02*
D03*
Y026176D02*
D03*
Y026491D02*
D03*
Y026806D02*
D03*
Y027121D02*
D03*
Y027436D02*
D03*
D41*
X041205Y0247D02*
D03*
X04152D02*
D03*
X041835D02*
D03*
X04215D02*
D03*
X042465D02*
D03*
X04278D02*
D03*
X043095D02*
D03*
X04341D02*
D03*
Y027968D02*
D03*
X043095D02*
D03*
X04278D02*
D03*
X042465D02*
D03*
X04215D02*
D03*
X041835D02*
D03*
X04152D02*
D03*
X041205D02*
D03*
D42*
X0421Y01785D02*
D03*
Y01927D02*
D03*
X043475Y01785D02*
D03*
Y01927D02*
D03*
X04485Y01785D02*
D03*
Y01927D02*
D03*
M02*
