G04*
G04 #@! TF.GenerationSoftware,Altium Limited,Altium Designer,20.1.11 (218)*
G04*
G04 Layer_Color=2752767*
%FSTAX24Y24*%
%MOIN*%
G70*
G04*
G04 #@! TF.SameCoordinates,6DBB7448-FED5-465F-904A-7FE87FEFC6C8*
G04*
G04*
G04 #@! TF.FilePolarity,Positive*
G04*
G01*
G75*
%ADD90C,0.0020*%
%ADD91C,0.0027*%
D90*
X041838Y01362D02*
Y01378D01*
X041999D01*
Y01362D01*
X041838D01*
X03987D02*
Y01378D01*
X04003D01*
Y01362D01*
X03987D01*
X037901D02*
Y01378D01*
X038061D01*
Y01362D01*
X037901D01*
X035933D02*
Y01378D01*
X036093D01*
Y01362D01*
X035933D01*
X033964D02*
Y01378D01*
X034124D01*
Y01362D01*
X033964D01*
X02382Y01342D02*
Y01358D01*
X02398D01*
Y01342D01*
X02382D01*
X02182D02*
Y01358D01*
X02198D01*
Y01342D01*
X02182D01*
X03176D02*
Y01358D01*
X03192D01*
Y01342D01*
X03176D01*
X029765D02*
Y01358D01*
X029925D01*
Y01342D01*
X029765D01*
X02577D02*
Y01358D01*
X02593D01*
Y01342D01*
X02577D01*
X02777D02*
Y01358D01*
X02793D01*
Y01342D01*
X02777D01*
X04505Y03612D02*
X04497Y03628D01*
X04513D01*
X04505Y03612D01*
Y03712D02*
X04497Y03728D01*
X04513D01*
X04505Y03712D01*
Y03812D02*
X04497Y03828D01*
X04513D01*
X04505Y03812D01*
Y03912D02*
X04497Y03928D01*
X04513D01*
X04505Y03912D01*
Y04012D02*
X04497Y04028D01*
X04513D01*
X04505Y04012D01*
Y04112D02*
X04497Y04128D01*
X04513D01*
X04505Y04112D01*
X03705Y03612D02*
X03697Y03628D01*
X03713D01*
X03705Y03612D01*
Y03712D02*
X03697Y03728D01*
X03713D01*
X03705Y03712D01*
Y03812D02*
X03697Y03828D01*
X03713D01*
X03705Y03812D01*
Y03912D02*
X03697Y03928D01*
X03713D01*
X03705Y03912D01*
Y04012D02*
X03697Y04028D01*
X03713D01*
X03705Y04012D01*
Y04112D02*
X03697Y04128D01*
X03713D01*
X03705Y04112D01*
X0442Y03157D02*
X04424Y03161D01*
X04428D01*
X04424Y03165D01*
X04428Y03169D01*
X04424D01*
X0442Y03173D01*
X04416Y03169D01*
X04412D01*
X04416Y03165D01*
X04412Y03161D01*
X04416D01*
X0442Y03157D01*
X0432D02*
X04324Y03161D01*
X04328D01*
X04324Y03165D01*
X04328Y03169D01*
X04324D01*
X0432Y03173D01*
X04316Y03169D01*
X04312D01*
X04316Y03165D01*
X04312Y03161D01*
X04316D01*
X0432Y03157D01*
X0422D02*
X04224Y03161D01*
X04228D01*
X04224Y03165D01*
X04228Y03169D01*
X04224D01*
X0422Y03173D01*
X04216Y03169D01*
X04212D01*
X04216Y03165D01*
X04212Y03161D01*
X04216D01*
X0422Y03157D01*
X0412D02*
X04124Y03161D01*
X04128D01*
X04124Y03165D01*
X04128Y03169D01*
X04124D01*
X0412Y03173D01*
X04116Y03169D01*
X04112D01*
X04116Y03165D01*
X04112Y03161D01*
X04116D01*
X0412Y03157D01*
X0402D02*
X04024Y03161D01*
X04028D01*
X04024Y03165D01*
X04028Y03169D01*
X04024D01*
X0402Y03173D01*
X04016Y03169D01*
X04012D01*
X04016Y03165D01*
X04012Y03161D01*
X04016D01*
X0402Y03157D01*
X04597Y01342D02*
Y01358D01*
X04613D01*
Y01342D01*
X04597D01*
X04397D02*
Y01358D01*
X04413D01*
Y01342D01*
X04397D01*
X0532Y01837D02*
X05312Y01853D01*
X05328D01*
X0532Y01837D01*
X0522D02*
X05212Y01853D01*
X05228D01*
X0522Y01837D01*
X0512D02*
X05112Y01853D01*
X05128D01*
X0512Y01837D01*
X0502D02*
X05012Y01853D01*
X05028D01*
X0502Y01837D01*
X0542Y03142D02*
X05412Y03158D01*
X05428D01*
X0542Y03142D01*
X0532D02*
X05312Y03158D01*
X05328D01*
X0532Y03142D01*
X0522D02*
X05212Y03158D01*
X05228D01*
X0522Y03142D01*
X0512D02*
X05112Y03158D01*
X05128D01*
X0512Y03142D01*
X0502D02*
X05012Y03158D01*
X05028D01*
X0502Y03142D01*
X0492D02*
X04912Y03158D01*
X04928D01*
X0492Y03142D01*
X0482D02*
X04812Y03158D01*
X04828D01*
X0482Y03142D01*
X05012Y01342D02*
Y01358D01*
X05028D01*
Y01342D01*
X05012D01*
X04812D02*
Y01358D01*
X04828D01*
Y01342D01*
X04812D01*
X02433Y03527D02*
X02437Y03535D01*
X02433Y03543D01*
X02441Y03539D01*
X02449Y03543D01*
X02445Y03535D01*
X02449Y03527D01*
X02441Y03531D01*
X02433Y03527D01*
X04206Y0266D02*
X0421Y02668D01*
X04206Y02676D01*
X04214Y02672D01*
X04222Y02676D01*
X04218Y02668D01*
X04222Y0266D01*
X04214Y02664D01*
X04206Y0266D01*
X04218Y02361D02*
X04222Y02369D01*
X04218Y02377D01*
X04226Y02373D01*
X04234Y02377D01*
X0423Y02369D01*
X04234Y02361D01*
X04226Y02365D01*
X04218Y02361D01*
X04202Y01868D02*
X04206Y01876D01*
X04202Y01884D01*
X0421Y0188D01*
X04218Y01884D01*
X04214Y01876D01*
X04218Y01868D01*
X0421Y01872D01*
X04202Y01868D01*
X0427Y02504D02*
X04274Y02512D01*
X0427Y0252D01*
X04278Y02516D01*
X04286Y0252D01*
X04282Y02512D01*
X04286Y02504D01*
X04278Y02508D01*
X0427Y02504D01*
X04309Y026455D02*
X04313Y026535D01*
X04309Y026615D01*
X04317Y026575D01*
X04325Y026615D01*
X04321Y026535D01*
X04325Y026455D01*
X04317Y026495D01*
X04309Y026455D01*
X04561Y02435D02*
X04565Y02443D01*
X04561Y02451D01*
X04569Y02447D01*
X04577Y02451D01*
X04573Y02443D01*
X04577Y02435D01*
X04569Y02439D01*
X04561Y02435D01*
X04339Y02657D02*
X04343Y02665D01*
X04339Y02673D01*
X04347Y02669D01*
X04355Y02673D01*
X04351Y02665D01*
X04355Y02657D01*
X04347Y02661D01*
X04339Y02657D01*
X0458Y031987D02*
X04584Y032067D01*
X0458Y032147D01*
X04588Y032107D01*
X04596Y032147D01*
X04592Y032067D01*
X04596Y031987D01*
X04588Y032027D01*
X0458Y031987D01*
X02659Y03207D02*
X02663Y03215D01*
X02659Y03223D01*
X02667Y03219D01*
X02675Y03223D01*
X02671Y03215D01*
X02675Y03207D01*
X02667Y03211D01*
X02659Y03207D01*
X02864Y01777D02*
X02868Y01785D01*
X02864Y01793D01*
X02872Y01789D01*
X0288Y01793D01*
X02876Y01785D01*
X0288Y01777D01*
X02872Y01781D01*
X02864Y01777D01*
X03782Y02902D02*
X03786Y0291D01*
X03782Y02918D01*
X0379Y02914D01*
X03798Y02918D01*
X03794Y0291D01*
X03798Y02902D01*
X0379Y02906D01*
X03782Y02902D01*
X03954Y02928D02*
X03958Y02936D01*
X03954Y02944D01*
X03962Y0294D01*
X0397Y02944D01*
X03966Y02936D01*
X0397Y02928D01*
X03962Y02932D01*
X03954Y02928D01*
X04077Y03222D02*
X04081Y0323D01*
X04077Y03238D01*
X04085Y03234D01*
X04093Y03238D01*
X04089Y0323D01*
X04093Y03222D01*
X04085Y03226D01*
X04077Y03222D01*
X03595Y02112D02*
X03599Y0212D01*
X03595Y02128D01*
X03603Y02124D01*
X03611Y02128D01*
X03607Y0212D01*
X03611Y02112D01*
X03603Y02116D01*
X03595Y02112D01*
X04053Y02862D02*
X04057Y0287D01*
X04053Y02878D01*
X04061Y02874D01*
X04069Y02878D01*
X04065Y0287D01*
X04069Y02862D01*
X04061Y02866D01*
X04053Y02862D01*
X04105Y01933D02*
X04109Y01941D01*
X04105Y01949D01*
X04113Y01945D01*
X04121Y01949D01*
X04117Y01941D01*
X04121Y01933D01*
X04113Y01937D01*
X04105Y01933D01*
Y027087D02*
X04109Y027167D01*
X04105Y027247D01*
X04113Y027207D01*
X04121Y027247D01*
X04117Y027167D01*
X04121Y027087D01*
X04113Y027127D01*
X04105Y027087D01*
X04559Y04155D02*
X04563Y04163D01*
X04559Y04171D01*
X04567Y04167D01*
X04575Y04171D01*
X04571Y04163D01*
X04575Y04155D01*
X04567Y04159D01*
X04559Y04155D01*
X03831Y029479D02*
X03835Y029559D01*
X03831Y029639D01*
X03839Y029599D01*
X03847Y029639D01*
X03843Y029559D01*
X03847Y029479D01*
X03839Y029519D01*
X03831Y029479D01*
X0432Y02514D02*
X04324Y02522D01*
X0432Y0253D01*
X04328Y02526D01*
X04336Y0253D01*
X04332Y02522D01*
X04336Y02514D01*
X04328Y02518D01*
X0432Y02514D01*
X04367Y0277D02*
X04371Y02778D01*
X04367Y02786D01*
X04375Y02782D01*
X04383Y02786D01*
X04379Y02778D01*
X04383Y0277D01*
X04375Y02774D01*
X04367Y0277D01*
X04924Y02464D02*
X04928Y02472D01*
X04924Y0248D01*
X04932Y02476D01*
X0494Y0248D01*
X04936Y02472D01*
X0494Y02464D01*
X04932Y02468D01*
X04924Y02464D01*
X032916Y02937D02*
X032956Y02945D01*
X032916Y02953D01*
X032996Y02949D01*
X033076Y02953D01*
X033036Y02945D01*
X033076Y02937D01*
X032996Y02941D01*
X032916Y02937D01*
X043467Y025781D02*
X043507Y025861D01*
X043467Y025941D01*
X043547Y025901D01*
X043627Y025941D01*
X043587Y025861D01*
X043627Y025781D01*
X043547Y025821D01*
X043467Y025781D01*
X040199D02*
X040239Y025861D01*
X040199Y025941D01*
X040279Y025901D01*
X040359Y025941D01*
X040319Y025861D01*
X040359Y025781D01*
X040279Y025821D01*
X040199Y025781D01*
X041249Y025854D02*
X041289Y025934D01*
X041249Y026014D01*
X041329Y025974D01*
X041409Y026014D01*
X041369Y025934D01*
X041409Y025854D01*
X041329Y025894D01*
X041249Y025854D01*
D91*
X02908Y0263D02*
G03*
X02908Y0263I-00008J0D01*
G01*
X03108D02*
G03*
X03108Y0263I-00008J0D01*
G01*
M02*
