G04*
G04 #@! TF.GenerationSoftware,Altium Limited,Altium Designer,20.1.11 (218)*
G04*
G04 Layer_Color=16711935*
%FSTAX24Y24*%
%MOIN*%
G70*
G04*
G04 #@! TF.SameCoordinates,6DBB7448-FED5-465F-904A-7FE87FEFC6C8*
G04*
G04*
G04 #@! TF.FilePolarity,Negative*
G04*
G01*
G75*
%ADD68C,0.0946*%
%ADD69R,0.0946X0.0946*%
%ADD70R,0.1064X0.1064*%
%ADD71C,0.0980*%
%ADD72C,0.0710*%
%ADD73R,0.0710X0.0710*%
%ADD74R,0.0678X0.0678*%
%ADD75C,0.0678*%
%ADD76R,0.0710X0.0710*%
%ADD77C,0.0237*%
D68*
X041919Y0137D02*
D03*
X03995D02*
D03*
X037982D02*
D03*
X036013D02*
D03*
D69*
X034044D02*
D03*
D70*
X0239Y0135D02*
D03*
X0219D02*
D03*
X03184D02*
D03*
X029845D02*
D03*
X02585D02*
D03*
X02785D02*
D03*
X04605D02*
D03*
X04405D02*
D03*
X0502D02*
D03*
X0482D02*
D03*
D71*
X029Y0263D02*
D03*
X031D02*
D03*
D72*
X04505Y0362D02*
D03*
Y0372D02*
D03*
Y0382D02*
D03*
Y0392D02*
D03*
Y0402D02*
D03*
Y0412D02*
D03*
X03705Y0362D02*
D03*
Y0372D02*
D03*
Y0382D02*
D03*
Y0392D02*
D03*
Y0402D02*
D03*
X0522Y01845D02*
D03*
X0512D02*
D03*
X0502D02*
D03*
X0542Y0315D02*
D03*
X0532D02*
D03*
X0522D02*
D03*
X0512D02*
D03*
X0502D02*
D03*
X0492D02*
D03*
D73*
X03705Y0412D02*
D03*
D74*
X0442Y03165D02*
D03*
D75*
X0432D02*
D03*
X0422D02*
D03*
X0412D02*
D03*
X0402D02*
D03*
D76*
X0532Y01845D02*
D03*
X0482Y0315D02*
D03*
D77*
X02441Y03535D02*
D03*
X04214Y02668D02*
D03*
X04226Y02369D02*
D03*
X0421Y01876D02*
D03*
X04278Y02512D02*
D03*
X04317Y026535D02*
D03*
X04569Y02443D02*
D03*
X04347Y02665D02*
D03*
X04588Y032067D02*
D03*
X02667Y03215D02*
D03*
X02872Y01785D02*
D03*
X0379Y0291D02*
D03*
X03962Y02936D02*
D03*
X04085Y0323D02*
D03*
X03603Y0212D02*
D03*
X04061Y0287D02*
D03*
X04113Y01941D02*
D03*
Y027167D02*
D03*
X04567Y04163D02*
D03*
X03839Y029559D02*
D03*
X04328Y02522D02*
D03*
X04375Y02778D02*
D03*
X04932Y02472D02*
D03*
X032996Y02945D02*
D03*
X043547Y025861D02*
D03*
X040279D02*
D03*
X041329Y025934D02*
D03*
M02*
