G04*
G04 #@! TF.GenerationSoftware,Altium Limited,Altium Designer,20.1.11 (218)*
G04*
G04 Layer_Color=128*
%FSTAX24Y24*%
%MOIN*%
G70*
G04*
G04 #@! TF.SameCoordinates,6DBB7448-FED5-465F-904A-7FE87FEFC6C8*
G04*
G04*
G04 #@! TF.FilePolarity,Positive*
G04*
G01*
G75*
%ADD90C,0.0020*%
D90*
X041663Y0137D02*
X042174D01*
X041919Y013444D02*
Y013956D01*
X039694Y0137D02*
X040206D01*
X03995Y013444D02*
Y013956D01*
X037726Y0137D02*
X038237D01*
X037982Y013444D02*
Y013956D01*
X035757Y0137D02*
X036269D01*
X036013Y013444D02*
Y013956D01*
X033789Y0137D02*
X0343D01*
X034044Y013444D02*
Y013956D01*
X023644Y0135D02*
X024156D01*
X0239Y013244D02*
Y013756D01*
X021644Y0135D02*
X022156D01*
X0219Y013244D02*
Y013756D01*
X031584Y0135D02*
X032096D01*
X03184Y013244D02*
Y013756D01*
X029589Y0135D02*
X030101D01*
X029845Y013244D02*
Y013756D01*
X025594Y0135D02*
X026106D01*
X02585Y013244D02*
Y013756D01*
X027594Y0135D02*
X028106D01*
X02785Y013244D02*
Y013756D01*
X02875Y0263D02*
X02925D01*
X029Y02605D02*
Y02655D01*
X03075Y0263D02*
X03125D01*
X031Y02605D02*
Y02655D01*
X044833Y0362D02*
X045267D01*
X04505Y035983D02*
Y036417D01*
X044833Y0372D02*
X045267D01*
X04505Y036983D02*
Y037417D01*
X044833Y0382D02*
X045267D01*
X04505Y037983D02*
Y038417D01*
X044833Y0392D02*
X045267D01*
X04505Y038983D02*
Y039417D01*
X044833Y0402D02*
X045267D01*
X04505Y039983D02*
Y040417D01*
X044833Y0412D02*
X045267D01*
X04505Y040983D02*
Y041417D01*
X036833Y0362D02*
X037267D01*
X03705Y035983D02*
Y036417D01*
X036833Y0372D02*
X037267D01*
X03705Y036983D02*
Y037417D01*
X036833Y0382D02*
X037267D01*
X03705Y037983D02*
Y038417D01*
X036833Y0392D02*
X037267D01*
X03705Y038983D02*
Y039417D01*
X036833Y0402D02*
X037267D01*
X03705Y039983D02*
Y040417D01*
X036833Y0412D02*
X037267D01*
X03705Y040983D02*
Y041417D01*
X043999Y03165D02*
X044401D01*
X0442Y031449D02*
Y031851D01*
X042999Y03165D02*
X043401D01*
X0432Y031449D02*
Y031851D01*
X041999Y03165D02*
X042401D01*
X0422Y031449D02*
Y031851D01*
X040999Y03165D02*
X041401D01*
X0412Y031449D02*
Y031851D01*
X039999Y03165D02*
X040401D01*
X0402Y031449D02*
Y031851D01*
X045794Y0135D02*
X046306D01*
X04605Y013244D02*
Y013756D01*
X043794Y0135D02*
X044306D01*
X04405Y013244D02*
Y013756D01*
X052983Y01845D02*
X053417D01*
X0532Y018233D02*
Y018667D01*
X051983Y01845D02*
X052417D01*
X0522Y018233D02*
Y018667D01*
X050983Y01845D02*
X051417D01*
X0512Y018233D02*
Y018667D01*
X049983Y01845D02*
X050417D01*
X0502Y018233D02*
Y018667D01*
X053983Y0315D02*
X054417D01*
X0542Y031283D02*
Y031717D01*
X052983Y0315D02*
X053417D01*
X0532Y031283D02*
Y031717D01*
X051983Y0315D02*
X052417D01*
X0522Y031283D02*
Y031717D01*
X050983Y0315D02*
X051417D01*
X0512Y031283D02*
Y031717D01*
X049983Y0315D02*
X050417D01*
X0502Y031283D02*
Y031717D01*
X048983Y0315D02*
X049417D01*
X0492Y031283D02*
Y031717D01*
X047983Y0315D02*
X048417D01*
X0482Y031283D02*
Y031717D01*
X049944Y0135D02*
X050456D01*
X0502Y013244D02*
Y013756D01*
X047944Y0135D02*
X048456D01*
X0482Y013244D02*
Y013756D01*
X024371Y03535D02*
X024449D01*
X02441Y035311D02*
Y035389D01*
X042101Y02668D02*
X042179D01*
X04214Y026641D02*
Y026719D01*
X042221Y02369D02*
X042299D01*
X04226Y023651D02*
Y023729D01*
X042061Y01876D02*
X042139D01*
X0421Y018721D02*
Y018799D01*
X042741Y02512D02*
X042819D01*
X04278Y025081D02*
Y025159D01*
X043131Y026535D02*
X043209D01*
X04317Y026496D02*
Y026574D01*
X045651Y02443D02*
X045729D01*
X04569Y024391D02*
Y024469D01*
X043431Y02665D02*
X043509D01*
X04347Y026611D02*
Y026689D01*
X045841Y032067D02*
X045919D01*
X04588Y032028D02*
Y032107D01*
X026631Y03215D02*
X026709D01*
X02667Y032111D02*
Y032189D01*
X028681Y01785D02*
X028759D01*
X02872Y017811D02*
Y017889D01*
X037861Y0291D02*
X037939D01*
X0379Y029061D02*
Y029139D01*
X039581Y02936D02*
X039659D01*
X03962Y029321D02*
Y029399D01*
X040811Y0323D02*
X040889D01*
X04085Y032261D02*
Y032339D01*
X035991Y0212D02*
X036069D01*
X03603Y021161D02*
Y021239D01*
X040571Y0287D02*
X040649D01*
X04061Y028661D02*
Y028739D01*
X041091Y01941D02*
X041169D01*
X04113Y019371D02*
Y019449D01*
X041091Y027167D02*
X041169D01*
X04113Y027127D02*
Y027206D01*
X045631Y04163D02*
X045709D01*
X04567Y041591D02*
Y041669D01*
X038351Y029559D02*
X038429D01*
X03839Y02952D02*
Y029599D01*
X043241Y02522D02*
X043319D01*
X04328Y025181D02*
Y025259D01*
X043711Y02778D02*
X043789D01*
X04375Y027741D02*
Y027819D01*
X049281Y02472D02*
X049359D01*
X04932Y024681D02*
Y024759D01*
X032956Y02945D02*
X033035D01*
X032996Y029411D02*
Y029489D01*
X043507Y025861D02*
X043586D01*
X043547Y025822D02*
Y025901D01*
X04024Y025861D02*
X040318D01*
X040279Y025822D02*
Y025901D01*
X04129Y025934D02*
X041369D01*
X041329Y025894D02*
Y025973D01*
M02*
